<?xml version="1.0" standalone="no"?>
<!DOCTYPE svg PUBLIC "-//W3C//DTD SVG 1.1//EN" "http://www.w3.org/Graphics/SVG/1.1/DTD/svg11.dtd" >
<svg xmlns="http://www.w3.org/2000/svg" xmlns:xlink="http://www.w3.org/1999/xlink" version="1.1">
<metadata>
Created by FontForge 20190801 at Mon Apr 30 09:11:06 2007
 By www-data
(c) COPYRIGHT H. BERTHOLD AG 1992 Alle Rechte vorbehalten.
</metadata>
<defs>
<font id="BaskervilleOldFace" horiz-adv-x="271" >
  <font-face 
    font-family="BaskervilleOldFace"
    font-weight="500"
    font-stretch="normal"
    units-per-em="1000"
    panose-1="0 0 0 0 0 0 0 0 0 0"
    ascent="800"
    descent="-200"
    x-height="431"
    cap-height="703"
    bbox="-145 -250 1099 905"
    underline-thickness="50"
    underline-position="-125"
    unicode-range="U+0020-FB02"
  />
<missing-glyph 
 />
    <glyph glyph-name=".notdef" 
 />
    <glyph glyph-name=".null" horiz-adv-x="0" 
 />
    <glyph glyph-name="nonmarkingreturn" horiz-adv-x="333" 
 />
    <glyph glyph-name="space" unicode=" " 
 />
    <glyph glyph-name="exclam" unicode="!" 
d="M92 70q4 22 23.5 37t42.5 15q26 0 44 -19t18 -45q0 -15 -7 -29q-15 -36 -57 -36q-16 0 -28 6q-20 9 -30 29t-6 42zM166 175h-19l-53 444q-4 24 0 46.5t23 36.5t40 14q21 -2 36 -12q13 -8 19 -22t6.5 -23.5t0.5 -31.5z" />
    <glyph glyph-name="dollar" unicode="$" horiz-adv-x="458" 
d="M220 5v326l-74 47q-3 3 -9.5 7.5t-11.5 8.5t-9 8q-73 62 -73 145q0 72 60 121q37 30 117 42v86h23v-86q6 -1 17.5 -2.5t17.5 -2.5q73 -12 108 -57q24 -30 24 -65q0 -38 -26 -55q-17 -7 -24 -7q-15 0 -26.5 12t-11.5 27q0 5 10 40q5 12 5 27q0 26 -22 44q-21 16 -72 21
v-272q36 -22 53 -33q30 -20 55 -40q27 -23 37 -35q48 -58 48 -133q0 -35 -11 -63q-25 -68 -90 -99q-27 -13 -93 -25v-86h-22l-1 85q-22 2 -35 4q-97 13 -141 73q-27 34 -27 79q0 40 19.5 60t41.5 20q16 -1 27.5 -12.5t11.5 -26.5q0 -9 -5 -21q-3 -8 -12 -21.5t-12 -18.5
q-5 -13 -5 -25q3 -44 43 -70q28 -19 95 -27zM222 433v259q-21 -2 -32.5 -4.5t-26.5 -7.5t-25.5 -14t-18.5 -23q-16 -30 -16 -61q0 -38 24 -72q16 -22 52 -46q7 -5 21.5 -15.5t21.5 -15.5zM242 317l1 -310q29 5 48 14q33 17 51 50.5t18 73.5q0 33 -14 67t-37.5 55.5
t-66.5 49.5z" />
    <glyph glyph-name="percent" unicode="%" horiz-adv-x="792" 
d="M21 488q2 109 75 182q38 36 76 36q27 0 57 -25q39 -32 60 -86.5t21 -108.5q0 -102 -64 -178q-42 -48 -86 -48q-44 1 -88 58q-54 77 -51 170zM83 462q7 -120 37 -162q20 -23 40 -23q21 0 37 16q21 21 35 74.5t14 123.5q0 67 -18 129q0 3 -5 18t-19.5 33t-33.5 18
q-14 0 -28 -9q-30 -20 -48 -98q-11 -62 -11 -120zM575 718l25 -15l-386 -717l-26 12zM480 220q0 111 73 182q26 26 50 36q16 4 24 4q13 0 28 -6q31 -10 56 -43q56 -70 56 -170q0 -22 -3.5 -47.5t-21.5 -69.5t-50 -73q-36 -36 -71 -37q-50 2 -89 56q-53 72 -52 168zM540 211
q2 -92 25 -147q1 -5 6.5 -15.5t18.5 -23t29 -12.5q27 0 47 30q40 62 40 185q-1 92 -25 148l-1 3q-2 3 -3.5 6l-4 8t-5.5 9t-7.5 8.5t-9 7.5t-10 5t-11.5 2q-12 0 -26 -8q-31 -18 -50 -96q-11 -50 -13 -110z" />
    <glyph glyph-name="ampersand" unicode="&#x26;" horiz-adv-x="708" 
d="M275 437l176 -240l49 110q12 24 12 48q0 54 -70 60v17h201v-15q-30 -6 -42 -12q-20 -9 -34 -25.5t-35 -53.5l-69 -143q34 -46 84 -99q60 -53 94 -53q5 0 25 5q22 9 44 43h12q-10 -21 -19 -37q-30 -49 -97 -49q-32 0 -65 12q-56 22 -130 100q-29 -38 -42 -51
q-62 -62 -148 -62q-50 0 -85 13q-52 20 -81 66.5t-29 103.5q0 72 52 137q34 44 113 92q-25 36 -37.5 57t-26 56.5t-13.5 67.5q0 25 9 48q14 34 47 61t93 27q86 0 126 -54q22 -30 22 -68q0 -39 -21 -69q-29 -46 -115 -93zM200 387q-2 -2 -8.5 -6.5t-9.5 -7l-9 -7.5t-9.5 -9.5
t-8.5 -11t-9.5 -14.5t-9.5 -18q-26 -54 -26 -101q0 -98 60 -153q40 -34 84 -34q56 0 104 41q16 12 44 49q-52 75 -64 90q-6 9 -22.5 30t-24.5 33q-11 15 -31.5 43t-24.5 34q-22 28 -35 42zM204 534l51 -71l13 -15q1 1 7.5 6t14 12t13.5 14q40 45 40 115q0 20 -6 42
q-9 31 -32.5 50t-54.5 19q-34 -1 -57.5 -24t-23.5 -57q0 -37 35 -91z" />
    <glyph glyph-name="parenleft" unicode="(" 
d="M244 736h20l-28 -34q-24 -34 -41 -68q-70 -131 -70 -286q0 -140 62 -285q17 -42 46 -93l28 -47h-17q-107 125 -146 198q-16 33 -30 71q-26 75 -26 147q0 88 37 182q21 43 28 54q31 51 137 161z" />
    <glyph glyph-name="parenright" unicode=")" 
d="M27 -75h-15q41 58 54 81q80 145 80 310q0 68 -14 134q-16 78 -43.5 138.5t-80.5 149.5h17q77 -90 105 -131q99 -143 99 -294q0 -54 -15 -112q-30 -112 -127 -217q-19 -21 -60 -59z" />
    <glyph glyph-name="asterisk" unicode="*" 
d="M22 535q7 5 14 7q5 2 15.5 4t18 4t15.5 5t12 6.5t4 8.5q0 3 -4 7q-10 7 -46 17q-20 4 -25 8q-14 6 -14 23q0 4 1 8q7 17 23 17q11 0 19 -4.5t20 -17.5t13 -14q16 -16 27 -16q7 0 7 12q0 6 -7 34q-7 22 -7 34q0 18 8.5 25.5t18.5 7.5q14 -1 19 -11.5t5 -19.5q0 -5 -6 -26
q-10 -38 -10 -44q0 -11 9 -11q11 0 37 26q22 26 42 25q10 0 17 -7t7 -18q0 -9 -5 -16q-3 -4 -7.5 -7t-8.5 -4t-11 -2.5t-10 -2.5q-10 -3 -21 -7q-20 -7 -24 -11l-1 -3q-1 -3 -1 -4q0 -4 6 -8q6 -3 28.5 -8.5t26.5 -6.5t9.5 -3.5t12 -9.5t6.5 -16q0 -26 -24 -26q-8 0 -15.5 4
t-11.5 7.5t-12 11.5l-11 11q-19 18 -31 18q-6 0 -6 -13q0 -15 6 -31q10 -20 10 -35q0 -4 -1.5 -10.5t-8.5 -13.5t-17 -7q-25 0 -25 28q0 7 2 15.5t5 16.5l3 8q5 20 5 29q0 12 -7 12q-13 0 -35 -22l-9 -9t-10.5 -10t-10 -6.5t-12.5 -3.5q-11 0 -18.5 7t-7.5 17q0 13 9 21z
" />
    <glyph glyph-name="plus" unicode="+" horiz-adv-x="667" 
d="M364 0h-60v261h-262v60h262v260h60v-260h261v-60h-261v-261z" />
    <glyph glyph-name="comma" unicode="," horiz-adv-x="229" 
d="M52 -157l-8 14q25 12 37.5 21t25.5 27q30 38 35 97q-23 -9 -36 -9q-26 0 -44.5 18.5t-18.5 43.5q0 7 4 23q16 41 60 41q37 -1 58.5 -31.5t21.5 -70.5q0 -42 -22.5 -83.5t-56.5 -64.5q-16 -11 -56 -26z" />
    <glyph glyph-name="hyphen" unicode="-" horiz-adv-x="292" 
d="M37 270h217v-76h-217v76z" />
    <glyph glyph-name="period" unicode="." horiz-adv-x="229" 
d="M51 76q6 19 25.5 32.5t40.5 13.5q26 0 43.5 -19.5t17.5 -44.5q0 -26 -19.5 -45.5t-46.5 -19.5q-16 0 -30 9q-19 11 -28 33t-3 41z" />
    <glyph glyph-name="slash" unicode="/" horiz-adv-x="292" 
d="M252 716l34 -13l-242 -702l-32 11z" />
    <glyph glyph-name="zero" unicode="0" horiz-adv-x="521" 
d="M28 353q5 63 12 94q27 123 111 203q7 8 21 20t42 26.5t53 14.5q35 0 76.5 -26t76.5 -82q48 -76 69 -200q0 -6 0.5 -17.5t0.5 -16.5q0 -41 -1 -62q-18 -79 -21 -90q-35 -120 -128 -189q-46 -35 -90 -35q-71 0 -131 79q-21 27 -47 78t-36 108q-6 32 -8 95zM392 263v4
q5 60 5 108q0 67 -23 182q-19 69 -39 97q-26 39 -65 39q-22 0 -43 -13q-39 -24 -68 -98q-25 -89 -31.5 -133.5t-7.5 -139.5q3 -84 18 -156q25 -90 65 -125q22 -19 47 -19q24 0 45 14q33 23 63 95q23 72 34 145z" />
    <glyph glyph-name="one" unicode="1" horiz-adv-x="521" 
d="M136 622v18q51 0 88 14q47 18 97 58v-579q2 -40 12 -62q8 -19 24 -30.5t29.5 -15.5t40.5 -10v-13h-295v16q63 12 81 33q25 29 25 87v484q-26 -3 -52 -3q-24 0 -50 3z" />
    <glyph glyph-name="two" unicode="2" horiz-adv-x="521" 
d="M230 417l-1 -9q-35 -16 -61 -16q-53 0 -87.5 42.5t-34.5 97.5q0 29 11 58q20 56 73.5 88t116.5 32q73 0 125 -32q40 -26 62.5 -70.5t22.5 -95.5q0 -48 -15.5 -85t-48.5 -88q-35 -44 -46 -56q-52 -58 -238 -208h221q26 1 36 5q46 13 67 55q5 9 14 39h13l-39 -173h-398v16
q137 131 195 205q25 30 89 121q20 35 23 41q39 74 39 146q-1 107 -71 146q-32 18 -67 18q-25 0 -50 -11q-39 -16 -61.5 -51.5t-22.5 -78.5q0 -22 8 -46q22 -59 77 -82q18 -6 48 -8z" />
    <glyph glyph-name="three" unicode="3" horiz-adv-x="521" 
d="M125 238v-10q-2 -2 -6.5 -5.5t-8 -6.5t-6.5 -6q-23 -28 -23 -70q0 -56 40 -95.5t96 -39.5q34 0 63 14q31 14 52 39.5t29.5 54t11 46.5t2.5 34q0 73 -36.5 119t-73.5 46q-14 0 -39.5 -16.5t-40.5 -16.5t-25 8t-10 22q0 33 44 33q10 0 28 -3.5t28 -3.5q24 0 47 14
q32 19 49 56t17 77q0 49 -22 94q-25 50 -68 66q-16 7 -42 7q-25 0 -46 -10q-23 -12 -36.5 -36t-13.5 -51q0 -42 27 -63q6 -5 28 -13l-1 -12q-24 -6 -34 -6q-34 0 -56.5 23t-22.5 56q0 49 43 87q54 43 122 43q33 0 69 -11q59 -19 97.5 -62t38.5 -102q0 -54 -35 -95
q-27 -34 -101 -69q48 -16 71 -30q18 -10 34.5 -24t34 -46.5t17.5 -71.5q0 -93 -77.5 -152.5t-173.5 -59.5q-50 0 -97 18.5t-73 54.5q-24 34 -24 75q0 61 55 87q16 7 48 13z" />
    <glyph glyph-name="four" unicode="4" horiz-adv-x="521" 
d="M352 704h19l1 -515q23 -1 36 3q18 5 29 19t15 26.5t9 37.5h13v-193h-15q-5 33 -11 48q-18 44 -76 40q-1 -45 0 -63t6.5 -37.5t17.5 -30.5q24 -21 66 -21v-16h-258v13q14 2 20 3q43 10 57 34q3 4 4.5 8t2.5 9.5t2 9.5t1 12v12v15.5v17.5v34h-261v14q28 43 82 129
q17 28 51.5 84.5t52.5 84.5q22 37 68 111t68 111zM292 571l-237 -383h237v383z" />
    <glyph glyph-name="five" unicode="5" horiz-adv-x="521" 
d="M133 321h-21q12 50 17 75q9 46 25 136q22 114 33 170q1 0 14.5 -2l27 -4t32.5 -3.5t34 -1.5q1 0 58 3q36 5 69 18q0 -20 -16 -46q-27 -48 -106 -48q-36 0 -105 8l-45 -232q4 3 19 14q39 30 92 30q39 0 75 -14q54 -21 84 -67.5t29 -106.5q0 -74 -35 -133t-97 -92t-133 -33
q-52 0 -93 18q-43 19 -62.5 48t-19.5 56q1 28 19 43q10 10 24 10q11 0 22 -7q19 -12 19 -49q0 -45 13 -64q27 -43 80 -43q42 0 73 22q38 24 66 79.5t28 137.5q0 109 -53 154q-24 21 -59 21q-41 0 -70 -27q-23 -23 -38 -70z" />
    <glyph glyph-name="six" unicode="6" horiz-adv-x="521" 
d="M139 394q27 20 42.5 30t41 19t51.5 9q75 -1 132 -48q12 -10 24 -23.5t26.5 -35t23 -52t8.5 -64.5q0 -120 -89 -191q-59 -48 -130 -48q-66 0 -120 45q-26 22 -47 52q-29 43 -38.5 86.5t-14.5 113.5q2 58 14 124q13 61 41 116q10 21 24 42q51 79 110.5 111t111.5 31
q57 0 89 -23q25 -19 25 -47q0 -14 -10.5 -24t-25.5 -10q-25 0 -40 34q-16 33 -22 38q-15 15 -44 15q-27 0 -56 -17q-55 -33 -95 -135q-23 -72 -32 -148zM137 220q0 -13 1.5 -29.5t7.5 -48.5t22 -62.5t40 -49.5q27 -24 63 -24q37 0 63 22q29 23 49 75t20 125q0 88 -29 140
q-21 38 -51 54t-55 16q-41 0 -71 -28q-64 -58 -60 -190z" />
    <glyph glyph-name="seven" unicode="7" horiz-adv-x="521" 
d="M175 696h310l-269 -649q-2 -5 -6 -13q-16 -37 -50 -37q-16 1 -27 14t-11 31q0 13 13 39l298 541h-240q-20 0 -37 -6q-19 -7 -34 -22.5t-22 -29.5t-17 -39h-12l52 207q9 -23 18 -29.5t34 -6.5z" />
    <glyph glyph-name="eight" unicode="8" horiz-adv-x="521" 
d="M202 358q-46 30 -67 51q-55 55 -55 125q0 31 11 61q22 56 72 87t111 31q15 0 31.5 -2.5t41.5 -10t48 -26t39 -46.5q21 -36 21 -74q0 -35 -16 -67q-12 -24 -32.5 -44t-36.5 -30t-48 -27q28 -13 54 -31q13 -9 26 -21.5t30.5 -34t28.5 -51.5t11 -62q0 -70 -43 -121
q-62 -73 -172 -74q-87 1 -145 51q-65 54 -65 132q0 35 16 69q14 30 37.5 52.5t42.5 33t59 29.5zM223 347q-28 -19 -43 -36q-59 -62 -59 -146q0 -30 10 -60q20 -56 58.5 -77t74.5 -21q32 0 64 16q68 37 68 128q0 63 -39 107q-38 43 -134 89zM304 396q16 10 31 26
q46 53 46 132q0 33 -12 66q-28 75 -109 75q-26 0 -42 -8q-27 -10 -50.5 -37t-23.5 -74q0 -42 23 -78q15 -24 39.5 -44.5t43.5 -31t54 -26.5z" />
    <glyph glyph-name="nine" unicode="9" horiz-adv-x="521" 
d="M381 308q-3 -3 -10 -8.5t-11 -8.5q-58 -42 -116 -42q-42 0 -83 19q-61 26 -95 82t-34 123q0 87 52 153q30 38 74 61.5t90 23.5q51 -1 97 -29t76 -72q31 -47 39.5 -98.5t8.5 -127.5q-7 -77 -25 -142q-31 -74 -49 -104q-34 -57 -80 -91.5t-81.5 -44.5t-69.5 -10
q-50 0 -82 22q-26 19 -26 48q0 18 12 25t23 7q25 0 40 -32q18 -35 24 -41q18 -13 42 -13q55 0 99 54q34 41 65 134q11 55 12 58q5 31 8 54zM117 470q0 -87 31 -142q39 -65 104 -65q22 0 41 8q88 36 88 200q0 82 -21 133q-16 38 -45 64.5t-67 26.5q-33 0 -58 -18
q-32 -23 -53 -76.5t-20 -130.5z" />
    <glyph glyph-name="colon" unicode=":" 
d="M93 70q4 21 24 36.5t42 15.5q25 -1 43 -20t18 -45q0 -14 -5 -25q-21 -38 -59 -38q-15 0 -30 8q-23 12 -30 33t-3 35zM93 385q4 22 22.5 36.5t40.5 14.5q27 -1 45.5 -19.5t18.5 -45.5q-1 -26 -19.5 -44.5t-45.5 -18.5q-16 0 -27 6q-25 12 -32 33.5t-3 37.5z" />
    <glyph glyph-name="semicolon" unicode=";" 
d="M70 -145l-6 15q22 6 35 13q41 23 65 75q5 12 12 39q-30 -3 -47 1t-30 23q-12 15 -12 37q0 15 5 26q17 37 58 37q27 0 48 -20.5t21 -69.5q0 -42 -22 -81t-59 -63q-20 -13 -68 -32zM94 384q6 22 23 35.5t40 13.5q26 0 44.5 -19t18.5 -45t-18.5 -44.5t-44.5 -18.5
q-19 0 -30 7q-44 24 -33 71z" />
    <glyph glyph-name="equal" unicode="=" horiz-adv-x="667" 
d="M667 173h-667v58h667v-58zM667 349h-667v59h667v-59z" />
    <glyph glyph-name="question" unicode="?" horiz-adv-x="458" 
d="M157 340v-168h-22v259h21q0 -1 0.5 -7t0.5 -8.5t0.5 -9t1.5 -10.5t3 -11t4.5 -12t6 -11.5t8 -11.5t11 -10t13.5 -10q26 -15 51 -15q30 0 52 22q46 43 46 146q0 13 -1.5 30t-7.5 51.5t-22.5 66t-42.5 50.5q-31 22 -60 22q-42 0 -59 -33q-4 -8 -7.5 -28.5t-7.5 -28.5
q-9 -22 -34 -22q-14 0 -23 11t-9 26q0 20 14 39q34 48 114 48q44 0 88 -20q62 -28 99.5 -85t37.5 -125q0 -45 -18 -86q-14 -29 -37 -49.5t-47.5 -29.5t-42.5 -12.5t-33 -3.5q-31 0 -51 8t-47 28zM84 70q4 22 22.5 36.5t40.5 14.5q28 0 46.5 -18t18.5 -46q-1 -27 -19.5 -46.5
t-45.5 -19.5q-28 1 -48 26t-15 53z" />
    <glyph glyph-name="A" unicode="A" horiz-adv-x="750" 
d="M170 236l90 232l79 202l13 33h30l9 -26l248 -588q14 -26 22 -36q16 -20 35.5 -26t53.5 -9v-17h-338l1 16q95 0 95 72q0 25 -13 57l-57 138h-224l-54 -142q-10 -35 -10 -48q1 -49 41 -69q7 -3 16 -5t17 -4l8 -1v-14h-232v17q42 3 65 23q32 26 65 102zM321 563l-101 -260
h210z" />
    <glyph glyph-name="B" unicode="B" horiz-adv-x="688" 
d="M121 191v357q-1 51 -8 76t-26 40q-21 17 -69 23v17h353q39 -1 57.5 -3t46.5 -10.5t50 -25.5q17 -14 28 -27q29 -40 29 -93q0 -54 -33 -96q-28 -36 -95 -64q62 -11 85 -22q34 -15 57.5 -40.5t33 -53t13 -47t3.5 -36.5q0 -80 -51 -131q-23 -22 -53.5 -34t-54 -15t-65.5 -5
h-405v17q39 6 54 14q32 17 40 48t10 111zM230 369v-181v-28v-24t0.5 -18.5t1.5 -18t3.5 -13.5t6 -14t8.5 -13q28 -40 93 -40q45 0 78 14q36 15 65.5 54t29.5 105q0 58 -28 104t-81 63q-29 9 -79 10h-98zM230 689v-303h48q90 0 134 33q50 37 50 118q0 98 -76 135
q-41 20 -156 17z" />
    <glyph glyph-name="C" unicode="C" horiz-adv-x="688" 
d="M636 711h11l10 -232h-17q-23 88 -69 145q-66 80 -155 79q-88 0 -151 -66q-31 -32 -55 -77q-20 -40 -31 -84q-9 -38 -14 -87q1 -25 -0.5 -57t9 -84.5t33.5 -95.5q11 -20 25.5 -38.5t40.5 -42t65 -37.5t85 -14q87 0 143 36q14 9 38 33q15 18 25 39.5t14.5 36.5t10.5 45h13
q-9 -63 -25 -97q-25 -51 -83.5 -88t-156.5 -37q-152 0 -245 76q-45 37 -80.5 105t-35.5 170q0 149 79 251q103 132 287 132q60 0 118 -17q14 -4 30.5 -10.5t26.5 -10t17 -3.5q14 1 21 7.5t16 22.5z" />
    <glyph glyph-name="D" unicode="D" horiz-adv-x="792" 
d="M16 688v16h351q53 -4 76 -7q116 -16 191 -84q119 -106 119 -286q0 -55 -12 -106q-22 -88 -71.5 -135t-102.5 -66q-64 -22 -169 -22q-16 0 -34 0.5t-39.5 1.5t-33.5 1h-274v16q37 7 50 13q29 13 40 39t14 86v411q-2 27 -4.5 41.5t-12 32.5t-26.5 29q-19 12 -62 19z
M231 689v-547q1 -4 1.5 -12.5t0.5 -12.5q7 -67 45 -88q27 -14 80 -14q144 0 214 100q60 86 60 220q0 95 -39 177q-61 128 -191 164q-56 14 -171 13z" />
    <glyph glyph-name="E" unicode="E" horiz-adv-x="667" 
d="M18 689v14h542l10 -164h-15q-1 6 -5 23q-21 79 -83 106q-36 16 -135 20h-102v-309h55q46 2 69 17q16 11 26.5 30t13 31.5t7.5 42.5h13v-269l-14 1q-7 60 -27 87q-16 22 -41.5 32.5t-45.5 12t-56 0.5v-172q1 -34 3 -52.5t11 -43t26 -40.5q40 -39 125 -39q60 0 94 11.5
t61 34.5q30 27 44.5 62t25.5 87h15l-5 -211h-613v16q49 6 72 25q29 25 33 113v410q-4 59 -17 79q-6 11 -22 24q-18 13 -65 21z" />
    <glyph glyph-name="F" unicode="F" horiz-adv-x="562" 
d="M16 688v15h535l17 -162l-13 -4q-5 15 -6.5 20t-9.5 23t-16 28.5t-23.5 25t-33.5 25.5q-38 22 -106 27h-130l1 -308q68 5 99.5 15t48.5 36q16 25 20 75h16v-269h-13q-10 65 -33 91q-15 19 -41.5 28t-45 10.5t-51.5 1.5v-241q6 -36 8 -44q11 -33 32.5 -45t62.5 -20v-15
h-317v17q6 0 18 2t32 10t30 21q19 23 24 94v430q-3 25 -6.5 39.5t-13 31t-25.5 25.5q-17 11 -60 17z" />
    <glyph glyph-name="G" unicode="G" horiz-adv-x="792" 
d="M641 706h15l9 -225l-13 -3l-3 12q-3 11 -4.5 16t-6 18.5t-8.5 22.5t-11 23t-14 25t-17 23.5t-21 23.5q-27 28 -63 44q-30 15 -73 15q-83 0 -147 -56q-67 -58 -99 -164q-14 -49 -18 -108q-1 -51 6 -108q11 -56 24.5 -94.5t40.5 -74.5q69 -94 168 -94q34 0 65 12
q42 18 68.5 55.5t26.5 83.5q0 31 -15 57q-16 27 -38.5 35t-64.5 9v15h329v-14q-31 -2 -53 -9q-26 -10 -35 -30.5t-12 -54.5v-107q-24 4 -25 4q-5 0 -8.5 -0.5t-7.5 -2t-6 -3t-8.5 -5.5t-11.5 -7q-18 -10 -38 -19q-62 -26 -137 -32q-24 -3 -47 -3q-193 2 -288 139
q-59 86 -59 209q0 85 27 156q41 107 132.5 167.5t207.5 60.5q85 0 167 -37q24 -11 33 -11q3 0 6 1t6 1l2 1q15 7 19 33z" />
    <glyph glyph-name="H" unicode="H" horiz-adv-x="833" 
d="M18 689v16h319v-19q-1 0 -9.5 -1t-18.5 -3t-18 -5q-18 -7 -30 -17.5t-17.5 -27.5t-7.5 -30t-4 -37v-186h368v189q-2 30 -6.5 48.5t-18.5 36t-39 26.5q-13 5 -40 10v16h317v-19q-45 -5 -69 -24q-13 -11 -20.5 -28.5t-9.5 -31t-4 -39.5v-426q0 -43 10 -64q11 -27 32.5 -38
t59.5 -18v-15h-317v15q37 7 55 16q27 13 36.5 37.5t11.5 64.5v217h-368v-209q2 -28 4.5 -43t12 -34t26.5 -31q21 -13 62 -19v-14h-317v15q51 6 75 30q23 23 29 100v419q-2 40 -9 61q-10 29 -33 42t-62 20z" />
    <glyph glyph-name="I" unicode="I" horiz-adv-x="354" 
d="M17 688v15h319v-17q-34 -5 -50 -12q-29 -12 -39.5 -35.5t-14.5 -63.5v-435q1 -26 3.5 -42t13 -35t28.5 -30q20 -11 59 -16v-16h-318v17q24 0 51 13q16 8 26.5 19t15 27.5t6.5 28t3 34.5v428q-1 36 -7 53q-7 23 -23 37t-30.5 19t-42.5 11z" />
    <glyph glyph-name="J" unicode="J" horiz-adv-x="333" 
d="M7 686v17h318v-17q-48 -5 -67 -21q-14 -10 -22 -27.5t-10 -30t-5 -36.5v-239q0 -22 -0.5 -67t-0.5 -68q0 -12 1 -49.5t0 -58.5q-2 -42 -4 -63q-9 -51 -25 -76q-22 -35 -70 -59.5t-122 -24.5q-48 0 -88 18.5t-40 60.5q0 25 15.5 35t31.5 10q17 0 26 -9q6 -4 11.5 -11.5
t9 -15t6 -14t4.5 -12.5l2 -6q15 -39 47 -39q20 0 39 13q21 14 28.5 34t12.5 54q8 144 8 217q0 56 -2 168v207q-8 62 -29 83q-22 21 -75 27z" />
    <glyph glyph-name="K" unicode="K" horiz-adv-x="729" 
d="M19 689v15h317v-17q-51 -5 -73 -25q-13 -12 -20 -31t-8.5 -31t-3.5 -39v-200l242 239q23 23 24 43q0 18 -18 30q-13 10 -46 14v17h218v-14q-43 -11 -62 -21.5t-51 -41.5l-196 -193l253 -313q71 -77 120 -95q21 -6 46 -9v-15h-328v15q38 4 51 23q7 9 7 22q0 30 -41 78
l-159 198l-19 25l-42 -39v-192q6 -62 25.5 -83t79.5 -34v-14h-319v17q54 8 76 29q23 23 28 98v431q-2 19 -3.5 29.5t-6 25t-12.5 24t-21 17.5q-19 11 -58 17z" />
    <glyph glyph-name="L" unicode="L" horiz-adv-x="667" 
d="M17 688v16h319v-15q-24 -5 -36.5 -8.5t-28 -14t-23.5 -25.5q-15 -27 -15 -61v-426q4 -43 13 -61q38 -73 165 -73q103 0 155 65q27 35 40 74q8 23 14 56h13v-214h-615v17q1 0 7.5 1.5t15.5 3t15 3.5q37 12 49 36t17 73v440q-7 48 -14 63q-8 17 -23.5 28t-28.5 14.5
t-39 7.5z" />
    <glyph glyph-name="M" unicode="M" horiz-adv-x="917" 
d="M17 686v15h213l223 -545q74 170 109 255q64 155 119 292h217v-16q-49 -8 -69 -25q-19 -14 -26.5 -36t-9.5 -68v-413q4 -89 46 -111q18 -10 59 -17v-15h-319v14q40 8 56 15q26 14 35.5 38t13.5 63v508l-265 -638h-17l-253 612v-468q2 -87 43 -111q17 -11 61 -18v-15h-237
v16q32 4 49 11q32 14 43 41t13 71v420q-2 28 -4 41.5t-10 32t-23 29.5q-20 16 -67 22z" />
    <glyph glyph-name="N" unicode="N" horiz-adv-x="771" 
d="M211 704l424 -528v395q0 32 -5 51q-3 10 -7.5 18.5t-10.5 15t-11.5 11.5t-13.5 8.5t-12.5 6t-13 4.5t-12 2.5t-11.5 1.5l-7 1v14h232v-15q-43 -9 -58 -16q-8 -4 -14.5 -10t-11 -12t-8 -14t-5.5 -13.5t-3.5 -14t-1.5 -12t-1 -10.5v-6v-579h-25l-489 609v-451
q4 -83 25 -107q21 -27 83 -35v-16h-236l1 16q41 8 56 16q27 13 36 39t12 66v431q-4 38 -11 62q-10 28 -32.5 39.5t-61.5 17.5v14h193z" />
    <glyph glyph-name="O" unicode="O" horiz-adv-x="854" 
d="M39 353q2 138 98 242q55 59 131 92t158 33q142 0 252 -91q62 -51 97 -125t35 -153q0 -134 -91 -234q-54 -61 -133.5 -95t-162.5 -34q-134 0 -241 79q-45 33 -76 75t-44.5 83.5t-18 71t-4.5 56.5zM167 345q0 -46 8 -96q7 -26 10 -34q19 -70 61 -124q72 -89 175 -89
q37 0 70.5 11.5t56 26t43.5 40.5t31.5 42t22.5 45.5t14 35t8 25.5q13 56 16 123q0 43 -4 75q-12 101 -70 181q-33 45 -81 71.5t-102 26.5q-95 0 -163 -68q-48 -49 -78 -148q-16 -67 -18 -144z" />
    <glyph glyph-name="P" unicode="P" horiz-adv-x="583" 
d="M17 688v15h326q63 -2 94 -10q20 -5 40.5 -15.5t45.5 -30.5t40.5 -55.5t15.5 -81.5q0 -92 -68 -137q-45 -30 -152 -34h-128v-181q1 -31 2.5 -47.5t10.5 -37.5t26 -34q22 -17 66 -24v-14h-319v17q18 2 26 4q42 12 57 33q21 29 23 106v390q-1 28 -3 43t-9.5 35t-22.5 33
q-22 19 -71 26zM230 686v-328h62q46 2 70 10q46 16 71.5 57.5t25.5 93.5q0 62 -31 106q-12 17 -34 33q-22 15 -50 22t-55 7t-59 -1z" />
    <glyph glyph-name="Q" unicode="Q" horiz-adv-x="854" 
d="M832 67l10 -5q-5 -48 -16 -73q-16 -36 -47 -61t-66.5 -34.5t-57 -12.5t-38.5 -3q-94 0 -162 58q-18 16 -46 49q-57 6 -59 6q-72 9 -132 44q-66 38 -103.5 89.5t-53.5 94.5q-20 57 -20 125q0 139 77 236q54 68 131.5 103.5t165.5 35.5q157 0 263 -97q56 -52 86 -122
t30 -146q0 -133 -67 -224q-30 -43 -78 -75q-33 -24 -114 -56q90 -36 146 -36q89 0 125 45q16 17 26 59zM513 16q34 20 43 29q23 20 42 50t29 53.5t23 60.5q12 57 15 85t2 88q-9 77 -22 116q-28 83 -90 143t-143 60q-74 0 -134 -54q-70 -62 -98 -173q-11 -42 -15 -122
q3 -68 15 -120q16 -54 28 -78.5t46 -69.5q60 12 79 12q35 0 68.5 -12.5t54.5 -26t57 -41.5zM396 3q-53 56 -90 65q-10 3 -40 3q35 -37 57 -48t73 -20z" />
    <glyph glyph-name="R" unicode="R" horiz-adv-x="667" 
d="M18 688l1 16q51 -1 154 -1q102 2 131 1q38 -1 110 -9q30 -8 45.5 -13.5t36 -15.5t34.5 -24.5t25 -35.5q20 -37 20 -78q-3 -73 -49 -119q-23 -23 -49 -33.5t-70 -19.5q43 -15 60 -33.5t53 -87.5q10 -19 28 -55.5t27 -54.5q0 -2 9 -20t26.5 -41.5t34.5 -34.5q13 -8 39 -13
v-15h-170l-122 238q-49 78 -90 95q-19 7 -45 8h-27v-200q5 -65 21 -87q21 -28 85 -40v-14h-318v17q34 6 50 13q48 20 53 94v462q-3 40 -18 62q-9 13 -24.5 21.5t-26.5 11t-34 6.5zM230 685v-324q76 -5 122.5 6.5t77.5 59.5q29 45 29 99q0 86 -68 132q-26 17 -58.5 22
t-102.5 5z" />
    <glyph glyph-name="S" unicode="S" horiz-adv-x="521" 
d="M39 220h15l9 -36q31 -105 96 -149q39 -28 87 -28q58 0 95 40t37 100q0 43 -19 77q-15 27 -63 59q-64 34 -94 52q-12 7 -57 35q-24 19 -39 35q-38 44 -38 111q0 28 9 60q14 45 46 80t75 49q25 9 56 9q41 0 80 -15q6 -2 20 -8.5t24.5 -9.5t20.5 -3q17 0 35 22h8l7 -200h-15
q-26 120 -86 167q-37 31 -85 31q-29 0 -51 -12q-31 -14 -49 -43.5t-18 -63.5q0 -26 15 -53q9 -17 24 -31t26 -21t33 -20q42 -20 96 -50q5 -3 22 -13t27 -15l10 -7q9 -7 21 -17t20 -18q47 -47 47 -129q0 -68 -37 -124t-100 -78q-33 -13 -82 -13q-56 0 -102 17q-6 2 -32 14
q-27 13 -45 13q-12 0 -19.5 -4t-11 -9.5t-9.5 -17.5h-9v217z" />
    <glyph glyph-name="T" unicode="T" horiz-adv-x="729" 
d="M14 705h697l10 -186h-14q-7 37 -13 52q-27 70 -103 96q-18 6 -48 12q-58 6 -87 6q-14 1 -42 1v-529q0 -20 1 -29q2 -62 35 -88q21 -17 70 -22v-17h-322v16q25 0 48 11q26 10 39.5 32t16 41t3.5 51v485l-1 49q-58 1 -120 -6q-1 0 -11 -2t-23 -5t-22 -6
q-36 -13 -62.5 -39.5t-37.5 -62.5q-4 -14 -8 -46h-16z" />
    <glyph glyph-name="U" unicode="U" horiz-adv-x="750" 
d="M319 706v-18q-30 -4 -44 -10q-21 -8 -34 -20.5t-18.5 -31.5t-7 -34.5t-1.5 -40.5v-330q1 -35 1.5 -51t6.5 -42.5t18 -45.5q46 -77 156 -77q41 0 90.5 14t78.5 37q16 11 30 32q21 36 25 117v346q-1 28 -3 43t-9 35.5t-21 33.5q-22 20 -73 27v15h234v-17q-48 -6 -70 -25
q-19 -17 -25 -42t-8 -66v-314q-2 -110 -22 -147q-24 -46 -91 -77t-167 -31q-131 0 -198 54q-30 25 -47 66q-13 33 -15 97v355q0 43 -6.5 68t-31.5 43q-23 15 -66 19v18h318z" />
    <glyph glyph-name="V" unicode="V" horiz-adv-x="729" 
d="M327 703v-16q-5 0 -15 -2q-75 -11 -75 -69q0 -13 8 -41l148 -395l14 -36l14 31l147 365q17 51 17 80q0 20 -10 36q-17 26 -67 32v15h218l-1 -15q-40 -7 -59 -24q-27 -23 -64 -106l-214 -524l-14 -32h-24l-212 548q-31 73 -45 93q-28 41 -92 44v16h326z" />
    <glyph glyph-name="W" unicode="W" horiz-adv-x="1104" 
d="M304 705v-16q-27 -4 -37 -7q-48 -13 -48 -60q0 -15 11 -55l101 -317l33 -95l140 341q22 66 22 100q0 40 -20 64q-16 16 -28 21q-14 6 -51 9v16h325v-15q-1 0 -8 -1t-17 -2t-17 -3q-55 -13 -55 -65q0 -30 18 -90l51 -154l12 -39l58 -177l18 41l133 328q2 4 6.5 16.5
t9.5 34.5t5 39q0 12 -3.5 22.5t-8.5 17.5t-13 12.5t-14.5 8.5t-15.5 5.5t-14 3t-11.5 1.5t-7.5 1v14h221l-1 -15q-19 -4 -33 -9q-34 -15 -64 -80l-232 -568l-14 -31h-24l-179 544l-226 -544h-28l-186 574q-11 31 -20 49q-15 32 -33 44t-59 22v14h304z" />
    <glyph glyph-name="X" unicode="X" horiz-adv-x="750" 
d="M331 340l-195 287q-31 38 -51.5 48.5t-69.5 12.5v17h338v-17q-81 0 -81 -43q0 -21 21 -53l110 -165l121 150q31 42 31 69q-1 42 -76 42v17h236l-1 -16q-47 -4 -66.5 -14t-52.5 -46l-177 -222l220 -318q36 -43 57.5 -55t73.5 -17v-15h-358v15q11 0 16 1h5q5 1 9.5 1.5
t11.5 2.5t13 4.5t13 6.5t11.5 9.5t7.5 13t3 16.5q0 23 -26 59l-110 161l-20 26l-143 -177q-31 -43 -31 -69q0 -21 14 -33q19 -20 69 -22v-15h-253v14q36 7 57 17q32 15 97 88z" />
    <glyph glyph-name="Y" unicode="Y" horiz-adv-x="708" 
d="M326 705l-1 -16q-24 -2 -38.5 -5t-28.5 -15.5t-14 -34.5q0 -14 14 -44l146 -234l139 212q0 1 3 6t5.5 10t5.5 12.5t5 16t2 16.5q0 39 -42 54q-12 4 -41 5v17h225l-1 -16q-38 -7 -53 -17t-38 -42l-172 -261q-15 -27 -19 -41t-6 -46v-149q0 -1 0.5 -9t1.5 -16t3 -18.5
t6.5 -21t11.5 -18.5q12 -16 35 -23.5t37.5 -8.5t43.5 -1v-16h-385l1 17q13 -1 26 0q66 1 92 46q14 25 16 74v127q-3 42 -22 79q-28 46 -84 136q-10 16 -98 146q-27 35 -43.5 45.5t-56.5 17.5v16h324z" />
    <glyph glyph-name="Z" unicode="Z" horiz-adv-x="667" 
d="M460 687h-186q-49 -3 -50 -3q-74 -10 -120 -49q-29 -25 -42 -53q-9 -18 -18 -63h-15l8 186h565l-451 -682h200q54 1 107 12q43 13 63 24q79 45 108 161q1 4 1 6h13l-9 -223h-626z" />
    <glyph glyph-name="bracketleft" unicode="[" 
d="M71 736h175v-24h-91v-766h90v-24h-174v814z" />
    <glyph glyph-name="backslash" unicode="\" horiz-adv-x="354" 
d="M264 -18l-228 724h59l229 -724h-60z" />
    <glyph glyph-name="bracketright" unicode="]" 
d="M113 -51v765h-90v23h174v-811h-174v23h90z" />
    <glyph glyph-name="underscore" unicode="_" horiz-adv-x="500" 
d="M510 -206h-520v59h520v-59z" />
    <glyph glyph-name="grave" unicode="`" 
d="M52 674l49 -173l-15 -4l-126 177h92z" />
    <glyph glyph-name="a" unicode="a" horiz-adv-x="437" 
d="M443 51l17 -8l-21 -24q-28 -27 -70 -27q-21 0 -37 6q-26 8 -57 47q-13 -11 -28 -22q-48 -33 -111 -33q-82 0 -106 52q-12 24 -12 52q0 78 101 108q10 3 41 11t52.5 16t37.5 20q26 19 26 60q0 12 -2 32q-7 49 -34 68q-23 15 -49 15q-39 -4 -56 -24q-6 -7 -15 -24.5
t-19.5 -28.5t-25.5 -11q-17 0 -27.5 11t-10.5 28q0 16 13 29q22 20 62.5 30.5t77.5 10.5q112 0 151 -61q10 -16 14 -56v-227q2 -78 44 -78q23 0 44 28zM276 135l3 118q-36 -27 -57 -38q-8 -4 -23 -11t-27 -13.5t-22 -13.5q-48 -37 -48 -92q0 -17 7 -33q6 -14 22 -27.5
t43 -13.5q41 0 70 33q25 30 32 91z" />
    <glyph glyph-name="b" unicode="b" horiz-adv-x="521" 
d="M139 721v-328q6 5 30 23q48 28 104 28q46 0 88 -19q62 -27 95.5 -82.5t33.5 -125.5q0 -57 -22 -105q-17 -37 -44 -63t-57 -37.5t-51.5 -15.5t-40.5 -4q-27 0 -62 10q-61 21 -78 21q-21 0 -50 -20h-23v613q-2 27 -10 44q-6 10 -16.5 16.5t-18 8t-25.5 5.5v14zM139 220
q0 -55 5 -90q21 -118 112 -119q34 0 64 22q31 22 54.5 69t23.5 115q0 102 -44 155.5t-103 53.5q-57 0 -86 -45q-28 -45 -26 -161z" />
    <glyph glyph-name="c" unicode="c" horiz-adv-x="417" 
d="M406 104l13 -9q-15 -30 -28 -47q-49 -58 -146 -58q-45 0 -84 15q-19 8 -37.5 21t-40.5 36t-35.5 58.5t-13.5 78.5q0 81 42 143q69 102 198 102q72 0 110 -33q20 -19 20 -41q0 -17 -10 -27t-26 -10q-18 0 -28.5 10t-19.5 32t-12 27q-16 27 -49 27q-34 0 -67 -26
q-67 -56 -67 -182q0 -121 76 -177q35 -29 85 -29q76 0 115 80q1 1 3 4z" />
    <glyph glyph-name="d" unicode="d" horiz-adv-x="542" 
d="M382 392v217q-2 52 -25 70q-16 12 -46 12v15l149 15v-617q4 -59 35 -73q22 -10 39 -10v-11l-148 -18l-6 46q-84 -44 -143 -44q-36 0 -66 10q-52 18 -96 68t-44 140q0 53 20 101q26 59 80.5 95t120.5 36q52 0 95 -25q12 -7 35 -27zM122 218q0 -62 20 -109q12 -26 30 -49
q41 -48 92 -48q47 0 77 32q22 24 34 82q8 74 7 146q0 18 -3 34q-7 70 -46 99q-27 22 -65 22q-59 0 -102 -58q-16 -22 -26 -49.5t-12.5 -46t-5.5 -55.5z" />
    <glyph glyph-name="e" unicode="e" horiz-adv-x="458" 
d="M425 276h-305q0 -38 2 -57q4 -98 66 -154q48 -39 103 -39q73 2 110 48q11 15 22 40l16 -5q-12 -30 -25 -48q-52 -70 -162 -70q-90 0 -149 51q-73 63 -73 170q0 92 49 154q31 36 77 57t95 21q77 0 127 -49q28 -28 36 -57q6 -16 11 -62zM121 295h228q-4 42 -13.5 66.5
t-36.5 44.5q-27 21 -59 21q-31 0 -55 -18q-52 -33 -64 -114z" />
    <glyph glyph-name="f" unicode="f" 
d="M94 435v146q4 51 18 72q23 33 75 53t99 20q62 0 86 -28q8 -11 8 -25q0 -20 -12.5 -28.5t-24.5 -8.5q-23 0 -40 26q-18 28 -20 30q-13 13 -38 13q-21 0 -39 -12q-20 -13 -26 -30.5t-10 -48.5v-178h101v-29h-100v-301q2 -26 6 -40q13 -43 66 -46v-15h-221v14q32 4 45 15
q11 8 17 23t7 22t3 30v298h-77v28h77z" />
    <glyph glyph-name="g" unicode="g" horiz-adv-x="437" 
d="M134 -53q-26 24 -47 24q-15 0 -24.5 -9.5t-11.5 -18t-2 -16.5q2 -27 22 -48q43 -47 123 -46q62 0 105 25q48 31 48 77q0 25 -17 42q-8 8 -18 13.5t-18 9t-23 5.5t-21 2.5t-23.5 1t-21.5 0.5q-32 0 -70 5q-32 4 -53 15q-40 24 -40 64q0 18 12 37q18 28 85 44
q-92 46 -92 128q0 36 17 64q20 35 60.5 56.5t81.5 21.5q11 0 22.5 -2t19.5 -4.5t17.5 -6.5t14 -6.5t12 -7t9.5 -5.5q54 31 86 31q27 0 42.5 -14t14.5 -28q0 -10 -7.5 -17t-18.5 -7q-9 0 -16.5 5.5t-16 14.5t-14.5 14q-9 7 -20 7q-6 0 -11.5 -2t-10 -4.5t-7.5 -4.5t-6 -5
l-3 -2q41 -51 41 -102q0 -30 -12 -60q-34 -73 -150 -79q-2 0 -17 -1t-20.5 -1.5t-17 -2.5t-19.5 -6t-14 -9q-11 -11 -11 -21q0 -8 4 -12q13 -17 89 -17q119 -3 157 -21q32 -15 52 -43.5t20 -63.5q0 -57 -45 -97q-55 -48 -170 -48q-71 0 -114 20q-71 32 -71 98q0 28 18 51
t45 24q12 0 23 -5q26 -12 33 -57zM122 305q0 -52 17 -86q21 -46 63 -46q31 0 55 30.5t24 86.5q0 67 -27 109q-21 32 -54 32q-23 0 -38 -15q-40 -34 -40 -111z" />
    <glyph glyph-name="h" unicode="h" horiz-adv-x="542" 
d="M16 691v13l149 18l1 -353l27 24q58 51 125 51q38 0 73.5 -17.5t50.5 -47.5q7 -14 15 -71v-208q4 -53 25 -70q13 -10 48 -16v-13h-223l1 13q15 3 29 7q13 5 21 12.5t12.5 19.5t6 21.5t2.5 27.5v214q-3 34 -7 47q-20 57 -87 57q-35 0 -63 -20q-24 -17 -37.5 -49.5
t-16 -55.5t-3.5 -64v-130q2 -57 31 -73q11 -6 39 -13v-13h-220v14q27 5 38 11q14 7 21.5 20.5t9.5 24.5t4 32v502q-2 32 -4 37q-4 17 -15 27t-22 13.5t-31 7.5z" />
    <glyph glyph-name="i" unicode="i" horiz-adv-x="250" 
d="M166 443v-343q0 -29 7 -47q5 -12 16 -20t19.5 -11t26.5 -8v-12h-217v15q31 4 44 13q21 15 27 66v239q0 21 -8 40q-13 33 -64 37v11zM79 686q13 32 45 32q21 -1 35 -16t14 -36q0 -19 -16 -32.5t-36 -13.5q-18 1 -31.5 14.5t-13.5 31.5q0 11 3 20z" />
    <glyph glyph-name="j" unicode="j" horiz-adv-x="229" 
d="M9 413v12l151 19v-455q-7 -82 -41 -119q-36 -42 -108 -42q-41 0 -76.5 17t-35.5 52q0 20 12.5 28t24.5 8q22 0 33 -23q4 -7 8.5 -24.5t9.5 -25.5q13 -21 38 -21q17 0 28 11q17 12 22 27t7 41v413q-5 54 -28 70q-15 10 -45 12zM73 679q1 6 5.5 13.5t15.5 15.5t25 8
q20 0 35 -14.5t15 -35.5q0 -20 -15.5 -34.5t-35.5 -14.5q-12 0 -21 6q-34 20 -24 56z" />
    <glyph glyph-name="k" unicode="k" horiz-adv-x="521" 
d="M17 692v12l149 17v-510l118 127q23 27 23 45q0 28 -57 36v13h195v-15q-41 -4 -59 -13t-50 -41l-83 -86l175 -193q14 -15 29 -29q22 -20 39 -27t51 -14v-13h-244v14q42 7 42 31q0 12 -16 32l-107 118l-23 29l-33 -37v-86q2 -34 8.5 -50t20.5 -24q9 -5 42 -13v-14h-220v15
q32 6 44 14q7 4 12 10.5t7.5 12.5t4.5 13.5t2.5 12t1 10t0.5 6.5v513q-3 33 -8 46q-7 19 -22 26t-42 12z" />
    <glyph glyph-name="l" unicode="l" horiz-adv-x="250" 
d="M18 691v14l147 18v-619q0 -2 0.5 -9t1.5 -15.5t3 -15.5q11 -41 66 -48v-14h-220v16q28 1 44 12q13 9 18 22t10 43v516q-2 38 -14 55q-14 20 -56 25z" />
    <glyph glyph-name="m" unicode="m" horiz-adv-x="833" 
d="M18 412v10l151 20l7 -70q2 2 8 7.5t9 8.5q68 56 134 56q22 0 46 -6q19 -6 34.5 -16.5t24.5 -20t24 -29.5q20 16 30 23q59 48 124 48q56 0 94 -33q20 -17 26 -32q4 -9 7.5 -21.5t5 -22.5t2.5 -19.5t1 -10.5v-202q1 -44 13 -60q14 -20 57 -26v-15h-218v13q25 4 34 9
q12 5 19.5 13t11 21t4.5 21t3 26v179q-1 25 -2 38.5t-7.5 32.5t-19.5 33q-14 14 -27 19q-17 8 -43 8q-36 0 -60 -18q-15 -11 -25.5 -29.5t-14.5 -33t-9 -40.5q-9 -87 -6 -191q5 -55 25 -71q17 -12 49 -14v-16h-224l1 16q33 4 47 15q10 8 15 21t6.5 22t2.5 30v182
q0 29 -1.5 44.5t-10.5 34.5t-27 31q-23 17 -55 17q-28 0 -54 -16q-21 -14 -33.5 -35t-17 -38t-9.5 -48q0 -13 -1.5 -40.5t-2.5 -41.5q0 -31 2 -93q1 -32 7 -46q7 -20 21.5 -27t42.5 -13v-14h-222v14q17 0 37 10q29 14 35 74v233q-5 53 -32 68q-10 7 -39 11z" />
    <glyph glyph-name="n" unicode="n" horiz-adv-x="542" 
d="M18 411v12l148 20l5 -65q42 32 76 48.5t75 16.5q38 0 72 -19.5t49 -52.5q7 -14 13 -56v-213q4 -58 30 -74q11 -7 44 -15v-12h-224l1 14q32 4 48 16q20 16 24 67v204q-2 37 -11 62t-35 38q-18 11 -48 11q-48 0 -80 -30q-13 -12 -20.5 -29.5t-10 -30t-5.5 -38.5v-182
q0 -31 8 -49q6 -13 16.5 -21t20 -11t27.5 -7v-14h-223l1 14q21 4 29 7q18 6 27 19.5t11.5 26t3.5 36.5v224q-1 32 -6 43q-5 13 -16 21.5t-20.5 11t-29.5 7.5z" />
    <glyph glyph-name="o" unicode="o" horiz-adv-x="542" 
d="M29 232q3 38 22 77q32 64 91.5 99.5t130.5 35.5q90 0 155 -52q38 -31 60.5 -77.5t22.5 -95.5q0 -68 -42 -127q-29 -42 -72.5 -66.5t-71.5 -30t-55 -5.5q-91 0 -160 57q-40 34 -62.5 83.5t-18.5 101.5zM124 210q1 -98 45.5 -151t100.5 -53q42 0 78 30q30 26 47 70t19.5 68
t2.5 44q0 39 -9 72q-4 15 -10.5 30.5t-22 43.5t-43.5 45.5t-64 17.5q-61 0 -102 -60q-43 -63 -42 -157z" />
    <glyph glyph-name="p" unicode="p" horiz-adv-x="542" 
d="M155 443l7 -46q20 12 30 17q57 30 112 30q39 0 75 -14q51 -19 90.5 -69t39.5 -140q0 -59 -20 -106q-25 -58 -77.5 -91.5t-117.5 -33.5q-57 0 -99 23q-13 8 -37 28v-119q0 -23 6 -43q12 -37 66 -45v-14h-221v16q28 6 39 11q19 9 25 26.5t7 46.5v406q-1 28 -6 43
q-11 39 -66 46v11zM156 218q2 -121 31 -166q30 -46 88 -46q37 3 68 24q76 56 76 183q0 99 -46 160q-42 55 -97 55q-43 0 -76 -35q-22 -25 -35 -83q-7 -41 -9 -92z" />
    <glyph glyph-name="q" unicode="q" horiz-adv-x="542" 
d="M433 432h26v-509q4 -47 18 -65q5 -7 11.5 -11t13 -6t11 -2.5t11 -1t7.5 -0.5v-15h-220l1 13q32 3 48 18q20 19 22 72v117q-38 -28 -64 -39.5t-65 -11.5q-45 0 -86 16q-21 8 -41.5 22t-44 38.5t-37.5 64t-14 87.5q0 57 21 102q24 56 74.5 88t114.5 32q39 0 80 -14
q5 -2 18 -7.5t22.5 -8.5t19.5 -3q24 0 53 24zM122 228q0 -12 2 -36q5 -94 57 -146q37 -38 86 -38q29 0 54 13q28 15 39 41t18 69q4 52 4 78q0 28 -6 84q-6 27 -10.5 43t-16.5 36t-29 33q-24 18 -57 18q-35 0 -67 -25q-10 -8 -19 -18t-15.5 -19t-12 -20.5t-9 -20.5t-7 -20
t-5 -18.5t-3 -18t-2 -15t-1 -12t-0.5 -8.5z" />
    <glyph glyph-name="r" unicode="r" horiz-adv-x="375" 
d="M16 412v12l144 17l9 -71q16 25 27 36q42 43 99 43q27 0 49 -14.5t22 -39.5q-1 -35 -39 -35q-17 0 -30 11q-8 6 -16 17t-15.5 16.5t-19.5 5.5q-17 0 -32 -11q-39 -27 -47 -133v-169q0 -22 7 -42q6 -14 16 -22.5t19.5 -11.5t28.5 -7v-12h-221v15q15 0 31 6t25 19.5t11 24
t5 32.5v229q-5 46 -16 61q-5 5 -11 10q-16 11 -46 13z" />
    <glyph glyph-name="s" unicode="s" horiz-adv-x="333" 
d="M267 438h15v-128h-12q-8 26 -13 40t-17.5 32t-30.5 29q-23 15 -48 15q-11 0 -23 -4q-18 -7 -30.5 -23t-12.5 -34q0 -10 4 -19t10.5 -15.5t12 -11.5t12.5 -9l6 -4l88 -53q22 -15 27 -19q55 -43 55 -105q0 -64 -34 -98q-38 -39 -104 -39q-34 0 -59 9q-5 2 -15.5 7t-18.5 8
t-16 3q-13 0 -26 -16h-12l4 155l15 -1q9 -41 17 -59q15 -37 44 -63.5t66 -26.5q13 0 28 6q21 9 35 29.5t14 42.5q-1 18 -7 29q-10 22 -44 49l-78 49q-21 16 -33 26q-46 40 -46 93q0 30 14 54q35 58 115 58q21 0 40 -8q31 -12 37 -12q12 0 21 14z" />
    <glyph glyph-name="t" unicode="t" horiz-adv-x="292" 
d="M138 568l15 -6v-130h136v-29h-136v-305q2 -26 9 -39q17 -34 65 -34q25 0 41 11t36 35v-28q-16 -14 -25 -20q-37 -27 -96 -27q-72 0 -95 43q-7 13 -11 50v314h-54l1 13q23 12 35 20q31 24 47 53.5t32 78.5z" />
    <glyph glyph-name="u" unicode="u" horiz-adv-x="521" 
d="M154 432v-314q2 -25 5 -39t12 -29.5t26 -25.5q24 -14 53 -14t53 15q25 16 35 37.5t17 61.5q5 77 4 133q0 47 -1 71q-4 58 -26 76q-9 7 -46 16v13h149v-334q4 -56 24 -71q16 -11 48 -13v-12l-147 -18v69q-17 -20 -29 -30q-45 -34 -116 -34q-28 0 -48 5q-57 15 -75 54
q-4 8 -6.5 20t-3.5 21l-2 18t-1 10v213q0 24 -5 40q-2 6 -4.5 12t-5.5 10t-7 7.5t-7 6t-8 4.5t-8 3t-8 2t-7 1.5t-7 0.5l-4 1v13h146z" />
    <glyph glyph-name="v" unicode="v" horiz-adv-x="458" 
d="M198 431l-1 -14q-47 -5 -47 -41q0 -5 10 -45l99 -246l94 244q9 27 9 44q0 36 -46 45v13h140v-13q-35 -11 -47.5 -23t-28.5 -47l-140 -354h-27l-147 364q-12 24 -15 28q-12 19 -51 33v12h198z" />
    <glyph glyph-name="w" unicode="w" horiz-adv-x="667" 
d="M184 432l-1 -13q-25 -7 -36 -16t-11 -31q0 -15 6 -34l79 -239l89 236q7 25 7 38q0 15 -7 24t-15 12.5t-27 9.5v13h192v-16q-15 0 -25 -3q-26 -8 -26 -38q0 -17 8 -49l73 -225l10 29l74 186q10 32 10 49q0 27 -20 41q-8 6 -27 12v13h127l-1 -13q-24 -9 -32.5 -18
t-18.5 -35l-144 -363h-28l-109 338l-131 -337h-26l-121 360q-9 27 -18 37t-34 20v12h183z" />
    <glyph glyph-name="x" unicode="x" horiz-adv-x="458" 
d="M197 200l-105 163q-20 28 -33 37.5t-45 16.5v14h201v-14q-9 -1 -18 -4q-22 -7 -22 -28q1 -15 36 -69q24 -36 35 -55l61 72q4 5 10 14.5t10 14.5q12 17 12 28q0 21 -31 29v12h136v-14q-35 -6 -50 -14.5t-38 -36.5l-98 -120l117 -179q20 -28 33 -36.5t47 -16.5v-13h-210v12
q15 3 23 5.5t14.5 9.5t6.5 18q0 15 -14 36l-68 104l-74 -92q-26 -35 -26 -50q0 -12 11 -19t19 -8t13 -1v-14h-146v11q33 10 47 19.5t38 35.5z" />
    <glyph glyph-name="y" unicode="y" horiz-adv-x="458" 
d="M198 432l-1 -14q-17 -3 -21 -5q-27 -10 -27 -39q0 -14 7 -39q2 -5 11.5 -32t15.5 -41t17 -41t17 -41q7 -15 19 -46.5t19 -47.5q46 106 61 143q13 32 37 96q9 24 9 38q0 33 -23 47q-14 7 -28 7v14h147l-1 -14q-24 -3 -37 -14t-33 -47l-196 -458q-20 -42 -43 -66t-60 -24
q-22 0 -40.5 10t-18.5 30q1 13 11 21.5t24 8.5q10 0 30 -7.5t30 -7.5q23 0 38 19q11 12 29 57q13 35 13 52q0 11 -10 41l-138 338q-12 26 -22 34t-35 14v14h199z" />
    <glyph glyph-name="z" unicode="z" horiz-adv-x="417" 
d="M287 413h-120q-26 -3 -38.5 -5t-30 -10.5t-29.5 -23.5q-13 -15 -22 -48l-11 5l10 101h349l-290 -413h142q29 3 43 5.5t34 12t34 25.5q18 19 30 62l14 -8l-16 -115h-386q62 90 118 169q18 26 56 78.5t57 79.5q14 19 56 85z" />
    <glyph glyph-name="braceleft" unicode="{" horiz-adv-x="354" 
d="M152 414v169q2 90 45 130q21 18 44 25q11 4 72 10v-6q-54 -14 -74 -44q-5 -7 -8.5 -14.5t-5.5 -14t-4 -16t-2.5 -15t-1 -16.5t-0.5 -15v-16v-15v-99q0 -70 -2 -105q0 -55 -22 -86q-16 -25 -55 -38q30 -10 47 -27q6 -6 10.5 -13t8 -15.5t6 -15t4 -19t2.5 -19.5t1 -23
t0.5 -24.5t0.5 -29v-30.5v-111q0 -77 15 -108q12 -25 30 -36.5t50 -21.5v-5q-6 0 -16.5 1t-15.5 2q-59 4 -91 37q-6 6 -10.5 13t-8 13.5t-6.5 16t-5 15t-3.5 16.5t-2 15.5t-1 17t-1 16t-0.5 16.5v15v163q0 78 -24 110q-17 22 -44 30v5q28 7 43 26q6 8 11 19.5t7.5 21.5t4 26
t1.5 24.5t0.5 25t0.5 19.5z" />
    <glyph glyph-name="braceright" unicode="}" horiz-adv-x="354" 
d="M203 83v-126q-1 -15 -1 -43q-2 -89 -45 -129q-14 -13 -44 -26q-19 -6 -72 -9v5q53 14 74 44q5 7 8.5 14.5t5.5 14t4 16t2.5 15t1 16.5t0.5 15v16v15v100q0 70 2 105q2 57 22 86q17 24 55 37q-30 10 -46 28q-6 6 -11 12.5t-8.5 15.5t-5.5 15.5t-4 18.5t-3 19.5t-1 23.5
t-0.5 24t-0.5 28.5v30.5v152q-6 76 -46 104q-15 11 -49 21v6q5 0 15.5 -1t15.5 -2q1 0 7 -1t9.5 -1.5t11 -2t13 -3t13.5 -4.5t14 -7t13.5 -9.5t13.5 -12.5q17 -19 25.5 -49t9 -47t0.5 -55v-162q0 -78 24 -110q15 -19 44 -31v-5q-29 -8 -43 -25q-5 -6 -9 -14t-6.5 -15.5
t-4 -19t-2.5 -18t-1.5 -20t-0.5 -18v-18v-14.5z" />
    <glyph glyph-name="exclamdown" unicode="&#xa1;" 
d="M51 669q6 21 23.5 34t39.5 13q27 0 46 -19.5t19 -47.5q0 -27 -19.5 -45t-46.5 -18q-15 0 -28 6q-37 17 -37 58q0 4 3 19zM104 534l19 -1q11 -113 24 -217q9 -75 29 -223q2 -21 1 -31q0 -35 -25 -54q-16 -13 -38 -13q-20 0 -35 9q-18 12 -23 28.5t-5 46.5z" />
    <glyph glyph-name="sterling" unicode="&#xa3;" horiz-adv-x="771" 
d="M294 247h-172v22h173v45h-159v22l160 1q3 83 20 164q16 52 31.5 83.5t45.5 60.5q73 73 167 73q30 0 58 -10q46 -15 74 -50t28 -81q-1 -54 -39 -92t-94 -38t-85 39q-15 20 -22 69l12 2q0 -1 1.5 -6.5t2.5 -8.5t4 -9.5t5 -11t6.5 -11t8.5 -11t10.5 -9.5t13 -8t15 -5
t18.5 -2q42 0 69.5 31.5t27.5 74.5q0 70 -56 105q-32 18 -62 18q-56 0 -102 -49q-40 -44 -63 -145q-10 -74 -10 -174h168v-22h-171l-3 -45h160v-24h-163q-9 -61 -20 -90t-44 -80q59 -15 96.5 -21.5t57.5 -8t64 -2.5q80 4 125 36q21 15 34 35q11 17 20 46l11 -1
q-2 -29 -5 -44.5t-11 -37t-23 -38.5q-43 -51 -136 -51q-31 0 -97 9q-81 21 -167 55q-26 -18 -32 -22q-56 -40 -130 -40q-61 0 -93 23q-21 16 -21 35q3 15 12 28q30 35 108 35q58 0 146 -22q17 51 21.5 77t5.5 81zM250 61q-80 37 -127 37q-36 0 -56 -16t-20 -35
q0 -16 18.5 -31.5t50.5 -15.5q22 0 44 7q39 12 90 54z" />
    <glyph glyph-name="section" unicode="&#xa7;" horiz-adv-x="458" 
d="M165 526l183 -123q21 -15 32.5 -24.5t24.5 -26t20 -35.5q7 -18 7 -40q0 -24 -12 -52t-22.5 -43.5t-31.5 -43.5q54 -54 54 -117q0 -60 -45 -102q-59 -55 -157 -55q-108 0 -165 71q-26 35 -26 63q0 15 7 27q10 24 36 24q12 0 23 -7q7 -6 11.5 -15.5t6 -17t2.5 -21.5t2 -20
q4 -33 25 -54q26 -28 82 -28q74 0 108 46q17 24 17 55q0 25 -12.5 47.5t-25 33.5t-39.5 32l-151 93q-22 15 -33 23.5t-24 23.5t-21 33q-10 23 -10 46q0 21 6 39q14 42 72 100q-20 22 -29.5 35t-18.5 34t-9 43q0 35 17 65q47 82 169 82q67 0 120 -29q30 -19 43.5 -44
t13.5 -45t-12 -35t-33 -15q-14 0 -25 12q-10 10 -13.5 20t-4 27t-1.5 23q-4 30 -19 43q-23 22 -74 22q-13 0 -34 -4q-10 -3 -19.5 -7t-25.5 -13.5t-25.5 -26.5t-9.5 -39q0 -9 2 -18t6 -16.5t7.5 -13.5t9 -12t8.5 -8.5t8 -7.5zM140 286l216 -139q0 1 5 10t8.5 17t6.5 20.5
t3 24.5q0 24 -10 44q-17 34 -69 68q-75 47 -97 62q-16 10 -45.5 30.5t-37.5 26.5q-30 -44 -30 -76q0 -12 3 -23.5t7 -19.5t11 -16.5t10.5 -12l10.5 -10.5z" />
    <glyph glyph-name="dieresis" unicode="&#xa8;" 
d="M-93 612q10 36 49 36q21 -1 35.5 -15.5t14.5 -35.5q-1 -21 -16 -35t-36 -14q-11 0 -23 6q-34 18 -24 58zM101 614q12 33 49 33q21 0 34.5 -15t13.5 -36q0 -20 -14 -34.5t-35 -14.5t-35.5 14.5t-14.5 36.5q0 9 2 16z" />
    <glyph glyph-name="copyright" unicode="&#xa9;" horiz-adv-x="833" 
d="M773 351q-3 -136 -88 -234q-50 -57 -120 -88.5t-148 -31.5q-158 0 -265 116q-91 100 -91 241q0 130 81 228q109 127 276 127q120 0 212 -69q22 -16 43 -38t45.5 -58t39.5 -86t15 -107zM740 352q0 112 -64 197q-15 20 -34.5 38.5t-51 40.5t-76.5 35.5t-96 13.5
q-108 0 -192 -62q-20 -15 -39.5 -34.5t-42.5 -52t-37 -78t-14 -97.5q0 -65 24 -123q37 -91 119.5 -146t181.5 -55q49 0 103 17q99 33 158.5 117t60.5 189zM517 128l-20 -2q-10 -1 -27 -2.5t-31 -2.5t-27 -1q-106 0 -160 61q-53 59 -53 180q0 52 10 88q38 130 201 130
q26 0 76 -6l22 -2q40 -4 69 -4q8 -88 13 -131h-25q-11 57 -34 84q-32 38 -91 38q-54 0 -88 -30q-21 -19 -33 -43q-21 -44 -21 -117q0 -153 65 -203q31 -24 84 -24q55 0 86 32q13 13 22 32q9 22 13 59h24q0 -22 0.5 -64t0.5 -64q-32 -1 -76 -8z" />
    <glyph glyph-name="guillemotleft" unicode="&#xab;" horiz-adv-x="375" 
d="M180 377h22l-101 -149l99 -149h-21l-171 151zM335 377h24l-100 -151l98 -147h-23l-166 148z" />
    <glyph glyph-name="registered" unicode="&#xae;" horiz-adv-x="833" 
d="M396 351h-35v-121q0 -39 7.5 -49.5t44.5 -15.5v-33q-58 2 -172 0l1 33q34 5 40 16q5 8 5 50v261v25q-2 13 -12 18.5t-34 7.5l1 34q68 -2 102 -2q64 2 96 2q98 0 133 -43q23 -27 23 -63q0 -30 -13.5 -52t-35.5 -33t-34.5 -15t-25.5 -6q10 -2 23 -12q22 -19 37 -71l9 -39
q4 -15 5.5 -21t5 -15t8 -12.5t10.5 -3.5q23 1 33 56l31 -6q-12 -60 -35 -89q-12 -14 -21 -18q-13 -7 -27 -7q-37 5 -52 24q-10 13 -18.5 36t-17 57t-9.5 39q-10 37 -24 50q-16 16 -49 18zM361 395h36q57 1 77 11q44 20 44 63q0 20 -11 38q-22 32 -82 32q-24 0 -40 -4
q-8 -2 -13 -6t-7.5 -14t-3 -17t-0.5 -25v-78zM773 351q0 -129 -85 -229q-43 -51 -102 -81.5t-96.5 -37t-72.5 -6.5q-122 0 -218 73q-138 108 -138 284q0 130 81 228q109 127 276 127q85 0 160 -37t126 -106q71 -95 69 -215zM741 352q0 109 -63 195q-15 20 -34.5 39
t-51.5 41.5t-77.5 36t-96.5 13.5q-108 0 -192 -62q-20 -15 -39.5 -34.5t-42.5 -52t-37 -78t-14 -97.5q0 -65 24 -123q37 -91 119.5 -146t181.5 -55q54 0 109 19q97 34 155 117.5t59 186.5z" />
    <glyph glyph-name="acute" unicode="&#xb4;" 
d="M70 674h86l-145 -175l-17 4z" />
    <glyph glyph-name="periodcentered" unicode="&#xb7;" horiz-adv-x="187" 
d="M92 230q-16 0 -23 5q-15 7 -25 22.5t-10 32.5q0 24 18 41.5t42 17.5q13 0 22 -4q16 -7 26.5 -22.5t10.5 -33.5q0 -25 -18 -42.5t-43 -16.5z" />
    <glyph glyph-name="cedilla" unicode="&#xb8;" 
d="M5 -215l-5 15q23 20 31.5 32.5t18.5 39.5q-40 2 -53 22q-8 16 -8 26q1 20 14 33.5t33 13.5q25 0 39.5 -19t13.5 -44q0 -26 -14 -49.5t-28.5 -36t-41.5 -33.5z" />
    <glyph glyph-name="guillemotright" unicode="&#xbb;" horiz-adv-x="375" 
d="M207 230l-169 -151h-20l98 152l-100 145h23zM275 228l-100 149h20l174 -149l-177 -149h-20z" />
    <glyph glyph-name="questiondown" unicode="&#xbf;" horiz-adv-x="458" 
d="M299 366v169h21v-260l-21 1q-1 30 -6 47q-10 30 -35.5 49.5t-57.5 18.5q-25 0 -49 -18q-49 -42 -49 -148q0 -90 33 -152q20 -36 49 -52.5t51 -16.5q42 0 59 33q5 9 8.5 29.5t6.5 27.5q11 21 34 21q14 0 23.5 -11t9.5 -26q-1 -39 -41 -61.5t-88 -22.5q-80 0 -147 57
q-78 71 -78 172q0 66 35 113q17 23 53.5 44.5t86.5 21.5q47 0 102 -36zM246 670q5 15 20.5 30.5t42.5 15.5t45.5 -19t19.5 -47q-1 -27 -21 -45.5t-47 -18.5q-14 0 -24 5q-18 7 -28.5 23.5t-10.5 35.5q0 2 3 20z" />
    <glyph glyph-name="Agrave" unicode="&#xc0;" horiz-adv-x="750" 
d="M170 236l90 232l79 202l13 33h30l9 -26l248 -588q14 -26 22 -36q16 -20 35.5 -26t53.5 -9v-17h-338l1 16q95 0 95 72q0 25 -13 57l-57 138h-224l-54 -142q-10 -35 -10 -48q1 -49 41 -69q7 -3 16 -5t17 -4l8 -1v-14h-232v17q42 3 65 23q32 26 65 102zM321 563l-101 -260
h210zM361 891l116 -125l-19 -12l-229 137h132z" />
    <glyph glyph-name="Aacute" unicode="&#xc1;" horiz-adv-x="750" 
d="M170 236l90 232l79 202l13 33h30l9 -26l248 -588q14 -26 22 -36q16 -20 35.5 -26t53.5 -9v-17h-338l1 16q95 0 95 72q0 25 -13 57l-57 138h-224l-54 -142q-10 -35 -10 -48q1 -49 41 -69q7 -3 16 -5t17 -4l8 -1v-14h-232v17q42 3 65 23q32 26 65 102zM321 563l-101 -260
h210zM399 892h134l-230 -136l-16 15z" />
    <glyph glyph-name="Acircumflex" unicode="&#xc2;" horiz-adv-x="750" 
d="M170 236l90 232l79 202l13 33h30l9 -26l248 -588q14 -26 22 -36q16 -20 35.5 -26t53.5 -9v-17h-338l1 16q95 0 95 72q0 25 -13 57l-57 138h-224l-54 -142q-10 -35 -10 -48q1 -49 41 -69q7 -3 16 -5t17 -4l8 -1v-14h-232v17q42 3 65 23q32 26 65 102zM321 563l-101 -260
h210zM320 891h105l94 -127l-17 -8l-127 90l-140 -91l-18 10z" />
    <glyph glyph-name="Atilde" unicode="&#xc3;" horiz-adv-x="750" 
d="M170 236l90 232l79 202l13 33h30l9 -26l248 -588q14 -26 22 -36q16 -20 35.5 -26t53.5 -9v-17h-338l1 16q95 0 95 72q0 25 -13 57l-57 138h-224l-54 -142q-10 -35 -10 -48q1 -49 41 -69q7 -3 16 -5t17 -4l8 -1v-14h-232v17q42 3 65 23q32 26 65 102zM321 563l-101 -260
h210zM490 891h13l1 -3v-8.5v-11.5v-14t-1 -15.5t-2 -16t-4 -15t-6 -13.5q-15 -27 -47 -27q-12 0 -39 11l-83 34q-14 7 -31 7q-18 0 -26 -13.5t-13 -37.5l-12 1q-7 47 6 79q17 43 56 43q17 0 100 -37l4 -2q5 -2 10.5 -4t12 -4t13.5 -3.5t12 -1.5q9 0 16 5q16 11 20 47z" />
    <glyph glyph-name="Adieresis" unicode="&#xc4;" horiz-adv-x="750" 
d="M164 220l89 228l83 213l16 42h30l9 -26l248 -588q14 -26 22 -36q16 -20 35.5 -26t53.5 -9v-17h-338l1 16q95 0 95 72q0 25 -13 57l-57 138h-224l-54 -142q-10 -35 -10 -48q1 -49 41 -69q7 -3 16 -5t17 -4l8 -1v-14h-232v17q44 7 61.5 19t42.5 53q30 58 60 130zM321 563
l-101 -260h210zM195 842q6 17 12 25q19 25 51 25q27 0 45.5 -18t18.5 -45t-18.5 -45.5t-45.5 -18.5q-14 0 -25 5q-20 9 -31 30t-7 42zM421 849q3 8 9 17t20.5 18t32.5 9q27 0 45 -19t18 -46t-18 -45t-46 -18q-26 0 -44.5 20.5t-18.5 46.5q0 9 2 17z" />
    <glyph glyph-name="Aring" unicode="&#xc5;" horiz-adv-x="750" 
d="M160 212l67 171l108 276l17 44h30l9 -26l248 -588q14 -26 22 -36q16 -20 35.5 -26t53.5 -9v-17h-338l1 16q95 0 95 72q0 25 -13 57l-57 138h-224l-54 -142q-10 -35 -10 -48q1 -49 41 -69q7 -3 16 -5t17 -4l8 -1v-14h-232v17q14 1 35 6q20 6 34 19.5t35 46.5q18 34 26 51
q19 41 30 71zM321 563l-101 -260h210zM287 836q5 31 28 50t54 19q34 0 58 -24t24 -59q0 -34 -24 -58t-58 -24q-20 0 -38 10q-52 27 -44 86zM315 839q-3 -12 -3 -17q1 -23 17.5 -39t39.5 -16t39.5 16.5t16.5 38.5q0 23 -16 40t-38 17q-18 -1 -34.5 -12t-21.5 -28z" />
    <glyph glyph-name="AE" unicode="&#xc6;" horiz-adv-x="1021" 
d="M346 689v14h567l10 -164h-13q-11 45 -22 64q-41 79 -164 84h-140v-308h41q63 2 88 20q30 22 44 101h13v-266h-15q-9 85 -58 115q-24 15 -79 17h-33v-146q1 -73 9 -107.5t32 -57.5q40 -37 129 -37q110 0 160 58q17 18 29 43t17 42t13 50h13v-208h-614l1 15q48 6 69 24
q16 13 24 37.5t8.5 38.5t1.5 47v124h-232l-83 -138q-24 -48 -24 -74q0 -48 82 -60v-15h-245v16q50 11 71 25t54 57q26 40 76 120q10 17 38 64t44 72l150 249q20 30 20 54q0 13 -7 19q-14 13 -75 11zM476 674l-220 -364h220v364z" />
    <glyph glyph-name="Ccedilla" unicode="&#xc7;" horiz-adv-x="688" 
d="M636 711h11l10 -232h-17q-23 88 -69 145q-66 80 -155 79q-88 0 -151 -66q-31 -32 -55 -77q-20 -40 -31 -84q-9 -38 -14 -87q1 -25 -0.5 -57t9 -84.5t33.5 -95.5q11 -20 25.5 -38.5t40.5 -42t65 -37.5t85 -14q87 0 143 36q14 9 38 33q15 18 25 39.5t14.5 36.5t10.5 45h13
q-9 -63 -25 -97q-25 -51 -83.5 -88t-156.5 -37q-152 0 -245 76q-45 37 -80.5 105t-35.5 170q0 149 79 251q103 132 287 132q60 0 118 -17q14 -4 30.5 -10.5t26.5 -10t17 -3.5q14 1 21 7.5t16 22.5zM297 -215l-6 15q23 20 31.5 32t19.5 40q-41 2 -53 22q-8 16 -8 26
q0 20 13.5 33.5t33.5 13.5q25 0 39 -18.5t14 -44.5t-14 -49.5t-28.5 -36t-41.5 -33.5z" />
    <glyph glyph-name="Egrave" unicode="&#xc8;" horiz-adv-x="667" 
d="M18 689v14h542l10 -164h-15q-1 6 -5 23q-21 79 -83 106q-36 16 -135 20h-102v-309h55q46 2 69 17q16 11 26.5 30t13 31.5t7.5 42.5h13v-269l-14 1q-7 60 -27 87q-16 22 -41.5 32.5t-45.5 12t-56 0.5v-172q1 -34 3 -52.5t11 -43t26 -40.5q40 -39 125 -39q60 0 94 11.5
t61 34.5q30 27 44.5 62t25.5 87h15l-5 -211h-613v16q49 6 72 25q29 25 33 113v410q-4 59 -17 79q-6 11 -22 24q-18 13 -65 21zM330 891l116 -125l-20 -12l-228 137h132z" />
    <glyph glyph-name="Eacute" unicode="&#xc9;" horiz-adv-x="667" 
d="M18 689v14h542l10 -164h-15q-1 6 -5 23q-21 79 -83 106q-36 16 -135 20h-102v-309h55q46 2 69 17q16 11 26.5 30t13 31.5t7.5 42.5h13v-269l-14 1q-7 60 -27 87q-16 22 -41.5 32.5t-45.5 12t-56 0.5v-172q1 -34 3 -52.5t11 -43t26 -40.5q40 -39 125 -39q60 0 94 11.5
t61 34.5q30 27 44.5 62t25.5 87h15l-5 -211h-613v16q49 6 72 25q29 25 33 113v410q-4 59 -17 79q-6 11 -22 24q-18 13 -65 21zM368 892h134l-230 -136l-16 15z" />
    <glyph glyph-name="Ecircumflex" unicode="&#xca;" horiz-adv-x="667" 
d="M18 689v14h542l10 -164h-15q-1 6 -5 23q-21 79 -83 106q-36 16 -135 20h-102v-309h55q46 2 69 17q16 11 26.5 30t13 31.5t7.5 42.5h13v-269l-14 1q-7 60 -27 87q-16 22 -41.5 32.5t-45.5 12t-56 0.5v-172q1 -34 3 -52.5t11 -43t26 -40.5q40 -39 125 -39q60 0 94 11.5
t61 34.5q30 27 44.5 62t25.5 87h15l-5 -211h-613v16q49 6 72 25q29 25 33 113v410q-4 59 -17 79q-6 11 -22 24q-18 13 -65 21zM289 891h105l93 -127l-16 -8l-127 90l-141 -91l-17 10z" />
    <glyph glyph-name="Edieresis" unicode="&#xcb;" horiz-adv-x="667" 
d="M18 689v14h542l10 -164h-15q-1 6 -5 23q-21 79 -83 106q-36 16 -135 20h-102v-309h55q46 2 69 17q16 11 26.5 30t13 31.5t7.5 42.5h13v-269l-14 1q-7 60 -27 87q-16 22 -41.5 32.5t-45.5 12t-56 0.5v-172q1 -34 3 -52.5t11 -43t26 -40.5q40 -39 125 -39q60 0 94 11.5
t61 34.5q30 27 44.5 62t25.5 87h15l-5 -211h-613v16q49 6 72 25q29 25 33 113v410q-4 59 -17 79q-6 11 -22 24q-18 13 -65 21zM168 841q4 22 22 36.5t41 14.5q27 0 45.5 -18.5t18.5 -45.5q0 -14 -6 -27q-17 -36 -59 -36q-28 0 -47.5 24t-14.5 52zM392 840q5 23 22.5 37
t41.5 14q25 0 44 -20t19 -46t-19 -43.5t-45 -17.5q-31 0 -49.5 23t-13.5 53z" />
    <glyph glyph-name="Igrave" unicode="&#xcc;" horiz-adv-x="354" 
d="M17 688v15h319v-17q-34 -5 -50 -12q-29 -12 -39.5 -35.5t-14.5 -63.5v-435q1 -26 3.5 -42t13 -35t28.5 -30q20 -11 59 -16v-16h-318v17q24 0 51 13q16 8 26.5 19t15 27.5t6.5 28t3 34.5v428q-1 36 -7 53q-7 23 -23 37t-30.5 19t-42.5 11zM163 891l116 -125l-19 -12
l-229 137h132z" />
    <glyph glyph-name="Iacute" unicode="&#xcd;" horiz-adv-x="354" 
d="M17 688v15h319v-17q-34 -5 -50 -12q-29 -12 -39.5 -35.5t-14.5 -63.5v-435q1 -26 3.5 -42t13 -35t28.5 -30q20 -11 59 -16v-16h-318v17q24 0 51 13q16 8 26.5 19t15 27.5t6.5 28t3 34.5v428q-1 36 -7 53q-7 23 -23 37t-30.5 19t-42.5 11zM201 892h134l-230 -136l-16 15z
" />
    <glyph glyph-name="Icircumflex" unicode="&#xce;" horiz-adv-x="354" 
d="M17 688v15h319v-17q-34 -5 -50 -12q-29 -12 -39.5 -35.5t-14.5 -63.5v-435q1 -26 3.5 -42t13 -35t28.5 -30q20 -11 59 -16v-16h-318v17q24 0 51 13q16 8 26.5 19t15 27.5t6.5 28t3 34.5v428q-1 36 -7 53q-7 23 -23 37t-30.5 19t-42.5 11zM122 891h105l94 -127l-17 -8
l-127 90l-140 -91l-18 10z" />
    <glyph glyph-name="Idieresis" unicode="&#xcf;" horiz-adv-x="354" 
d="M17 688v15h319v-17q-34 -5 -50 -12q-29 -12 -39.5 -35.5t-14.5 -63.5v-435q1 -26 3.5 -42t13 -35t28.5 -30q20 -11 59 -16v-16h-318v17q24 0 51 13q16 8 26.5 19t15 27.5t6.5 28t3 34.5v428q-1 36 -7 53q-7 23 -23 37t-30.5 19t-42.5 11zM2 841q4 22 22 36.5t41 14.5
q27 0 45 -18.5t18 -45.5q0 -14 -6 -27q-17 -36 -59 -36q-28 0 -47 24t-14 52zM226 840q4 22 21.5 36.5t41.5 14.5q26 0 44.5 -20t18.5 -46t-19 -43.5t-45 -17.5q-31 0 -49.5 23t-12.5 53z" />
    <glyph glyph-name="Ntilde" unicode="&#xd1;" horiz-adv-x="771" 
d="M211 704l424 -528v395q0 32 -5 51q-3 10 -7.5 18.5t-10.5 15t-11.5 11.5t-13.5 8.5t-12.5 6t-13 4.5t-12 2.5t-11.5 1.5l-7 1v14h232v-15q-43 -9 -58 -16q-8 -4 -14.5 -10t-11 -12t-8 -14t-5.5 -13.5t-3.5 -14t-1.5 -12t-1 -10.5v-6v-579h-25l-489 609v-451
q4 -83 25 -107q21 -27 83 -35v-16h-236l1 16q41 8 56 16q27 13 36 39t12 66v431q-4 38 -11 62q-10 28 -32.5 39.5t-61.5 17.5v14h193zM501 891h12l1 -3v-8.5v-11.5v-14t-0.5 -15.5t-2 -16t-4 -15t-5.5 -13.5q-15 -27 -48 -27q-12 0 -39 11l-83 34q-11 7 -31 7q-29 0 -38 -51
l-13 1v11q-1 11 -1 20.5t1.5 23.5t5.5 24q17 43 56 43q17 0 100 -37l4 -2q5 -2 10.5 -4t12 -4t13.5 -3.5t12 -1.5q9 0 17 5q14 10 20 47z" />
    <glyph glyph-name="Ograve" unicode="&#xd2;" horiz-adv-x="854" 
d="M39 353q2 138 98 242q55 59 131 92t158 33q142 0 252 -91q62 -51 97 -125t35 -153q0 -134 -91 -234q-54 -61 -133.5 -95t-162.5 -34q-134 0 -241 79q-45 33 -76 75t-44.5 83.5t-18 71t-4.5 56.5zM167 345q0 -46 8 -96q7 -26 10 -34q19 -70 61 -124q72 -89 175 -89
q37 0 70.5 11.5t56 26t43.5 40.5t31.5 42t22.5 45.5t14 35t8 25.5q13 56 16 123q0 43 -4 75q-12 101 -70 181q-33 45 -81 71.5t-102 26.5q-95 0 -163 -68q-48 -49 -78 -148q-16 -67 -18 -144zM413 891l116 -125l-19 -12l-229 137h132z" />
    <glyph glyph-name="Oacute" unicode="&#xd3;" horiz-adv-x="854" 
d="M39 353q2 138 98 242q55 59 131 92t158 33q142 0 252 -91q62 -51 97 -125t35 -153q0 -134 -91 -234q-54 -61 -133.5 -95t-162.5 -34q-134 0 -241 79q-45 33 -76 75t-44.5 83.5t-18 71t-4.5 56.5zM167 345q0 -46 8 -96q7 -26 10 -34q19 -70 61 -124q72 -89 175 -89
q37 0 70.5 11.5t56 26t43.5 40.5t31.5 42t22.5 45.5t14 35t8 25.5q13 56 16 123q0 43 -4 75q-12 101 -70 181q-33 45 -81 71.5t-102 26.5q-95 0 -163 -68q-48 -49 -78 -148q-16 -67 -18 -144zM451 892h134l-230 -136l-16 15z" />
    <glyph glyph-name="Ocircumflex" unicode="&#xd4;" horiz-adv-x="854" 
d="M39 353q2 138 98 242q55 59 131 92t158 33q142 0 252 -91q62 -51 97 -125t35 -153q0 -134 -91 -234q-54 -61 -133.5 -95t-162.5 -34q-134 0 -241 79q-45 33 -76 75t-44.5 83.5t-18 71t-4.5 56.5zM167 345q0 -46 8 -96q7 -26 10 -34q19 -70 61 -124q72 -89 175 -89
q37 0 70.5 11.5t56 26t43.5 40.5t31.5 42t22.5 45.5t14 35t8 25.5q13 56 16 123q0 43 -4 75q-12 101 -70 181q-33 45 -81 71.5t-102 26.5q-95 0 -163 -68q-48 -49 -78 -148q-16 -67 -18 -144zM372 891h105l94 -127l-17 -8l-127 90l-140 -91l-18 10z" />
    <glyph glyph-name="Otilde" unicode="&#xd5;" horiz-adv-x="854" 
d="M39 353q2 138 98 242q55 59 131 92t158 33q142 0 252 -91q62 -51 97 -125t35 -153q0 -134 -91 -234q-54 -61 -133.5 -95t-162.5 -34q-134 0 -241 79q-45 33 -76 75t-44.5 83.5t-18 71t-4.5 56.5zM167 345q0 -46 8 -96q7 -26 10 -34q19 -70 61 -124q72 -89 175 -89
q37 0 70.5 11.5t56 26t43.5 40.5t31.5 42t22.5 45.5t14 35t8 25.5q13 56 16 123q0 43 -4 75q-12 101 -70 181q-33 45 -81 71.5t-102 26.5q-95 0 -163 -68q-48 -49 -78 -148q-16 -67 -18 -144zM542 891h13l1 -3v-8.5v-11.5v-14t-1 -15.5t-2 -16t-4 -15t-6 -13.5
q-15 -27 -47 -27q-12 0 -39 11l-83 34q-14 7 -31 7q-18 0 -26 -13.5t-13 -37.5l-12 1q-7 47 6 79q17 43 56 43q17 0 100 -37l4 -2q5 -2 10.5 -4t12 -4t13.5 -3.5t12 -1.5q9 0 16 5q16 11 20 47z" />
    <glyph glyph-name="Odieresis" unicode="&#xd6;" horiz-adv-x="854" 
d="M39 353q2 138 98 242q55 59 131 92t158 33q142 0 252 -91q62 -51 97 -125t35 -153q0 -134 -91 -234q-54 -61 -133.5 -95t-162.5 -34q-134 0 -241 79q-45 33 -76 75t-44.5 83.5t-18 71t-4.5 56.5zM167 345q0 -46 8 -96q7 -26 10 -34q19 -70 61 -124q72 -89 175 -89
q37 0 70.5 11.5t56 26t43.5 40.5t31.5 42t22.5 45.5t14 35t8 25.5q13 56 16 123q0 43 -4 75q-12 101 -70 181q-33 45 -81 71.5t-102 26.5q-95 0 -163 -68q-48 -49 -78 -148q-16 -67 -18 -144zM251 849q3 9 8.5 18t20 18.5t33.5 9.5q26 0 45 -19t19 -47q0 -25 -19 -43.5
t-45 -18.5q-30 0 -49.5 26t-12.5 56zM474 842q4 22 23.5 37t42.5 15q25 0 43 -19.5t18 -45.5q0 -5 -5 -25q-18 -38 -59 -38q-14 0 -28 7q-42 21 -35 69z" />
    <glyph glyph-name="Oslash" unicode="&#xd8;" horiz-adv-x="854" 
d="M689 621l112 104l19 -18q-44 -38 -64 -58q-8 -7 -16 -15t-17.5 -18t-14.5 -15q36 -42 49 -61q54 -81 54 -190q0 -126 -83 -221q-26 -30 -59.5 -57.5t-102 -55t-144.5 -27.5q-111 0 -195 49q-28 16 -77 56l-103 -94l-17 19l101 91q-28 35 -42 57q-50 82 -50 181
q0 93 44.5 172.5t121.5 130.5q67 45 138 61q42 9 79 9q38 0 83 -9q53 -10 91.5 -30.5t92.5 -60.5zM199 171l434 398q-27 44 -40 59q-64 78 -167 78q-92 -3 -152 -58q-44 -41 -76 -120.5t-32 -190.5q0 -75 33 -166zM644 545l-436 -398q16 -26 25 -38q74 -107 186 -107
q94 0 159 65q42 42 73 118t31 183q0 52 -8 87t-30 90z" />
    <glyph glyph-name="Ugrave" unicode="&#xd9;" horiz-adv-x="750" 
d="M319 706v-18q-30 -4 -44 -10q-21 -8 -34 -20.5t-18.5 -31.5t-7 -34.5t-1.5 -40.5v-330q1 -35 1.5 -51t6.5 -42.5t18 -45.5q46 -77 156 -77q41 0 90.5 14t78.5 37q16 11 30 32q21 36 25 117v346q-1 28 -3 43t-9 35.5t-21 33.5q-22 20 -73 27v15h234v-17q-48 -6 -70 -25
q-19 -17 -25 -42t-8 -66v-314q-2 -110 -22 -147q-24 -46 -91 -77t-167 -31q-131 0 -198 54q-30 25 -47 66q-13 33 -15 97v355q0 43 -6.5 68t-31.5 43q-23 15 -66 19v18h318zM392 891l116 -125l-19 -12l-229 137h132z" />
    <glyph glyph-name="Uacute" unicode="&#xda;" horiz-adv-x="750" 
d="M319 706v-18q-30 -4 -44 -10q-21 -8 -34 -20.5t-18.5 -31.5t-7 -34.5t-1.5 -40.5v-330q1 -35 1.5 -51t6.5 -42.5t18 -45.5q46 -77 156 -77q41 0 90.5 14t78.5 37q16 11 30 32q21 36 25 117v346q-1 28 -3 43t-9 35.5t-21 33.5q-22 20 -73 27v15h234v-17q-48 -6 -70 -25
q-19 -17 -25 -42t-8 -66v-314q-2 -110 -22 -147q-24 -46 -91 -77t-167 -31q-131 0 -198 54q-30 25 -47 66q-13 33 -15 97v355q0 43 -6.5 68t-31.5 43q-23 15 -66 19v18h318zM430 892h134l-230 -136l-15 15z" />
    <glyph glyph-name="Ucircumflex" unicode="&#xdb;" horiz-adv-x="750" 
d="M319 706v-18q-30 -4 -44 -10q-21 -8 -34 -20.5t-18.5 -31.5t-7 -34.5t-1.5 -40.5v-330q1 -35 1.5 -51t6.5 -42.5t18 -45.5q46 -77 156 -77q41 0 90.5 14t78.5 37q16 11 30 32q21 36 25 117v346q-1 28 -3 43t-9 35.5t-21 33.5q-22 20 -73 27v15h234v-17q-48 -6 -70 -25
q-19 -17 -25 -42t-8 -66v-314q-2 -110 -22 -147q-24 -46 -91 -77t-167 -31q-131 0 -198 54q-30 25 -47 66q-13 33 -15 97v355q0 43 -6.5 68t-31.5 43q-23 15 -66 19v18h318zM351 891h105l94 -127l-17 -8l-127 90l-140 -91l-17 10z" />
    <glyph glyph-name="Udieresis" unicode="&#xdc;" horiz-adv-x="750" 
d="M319 706v-18q-30 -4 -44 -10q-21 -8 -34 -20.5t-18.5 -31.5t-7 -34.5t-1.5 -40.5v-330q1 -35 1.5 -51t6.5 -42.5t18 -45.5q46 -77 156 -77q41 0 90.5 14t78.5 37q16 11 30 32q21 36 25 117v346q-1 28 -3 43t-9 35.5t-21 33.5q-22 20 -73 27v15h234v-17q-48 -6 -70 -25
q-19 -17 -25 -42t-8 -66v-314q-2 -110 -22 -147q-24 -46 -91 -77t-167 -31q-131 0 -198 54q-30 25 -47 66q-13 33 -15 97v355q0 43 -6.5 68t-31.5 43q-23 15 -66 19v18h318zM230 844q5 22 22.5 35.5t40.5 13.5q26 0 45 -19t19 -44q0 -9 -4 -21q-14 -43 -59 -43q-29 0 -49 21
q-19 21 -15 57zM454 842q4 22 22.5 36.5t41.5 14.5q10 0 33 -9q30 -21 30 -56q0 -27 -19 -45t-45 -18q-13 0 -27 7q-20 10 -30 29t-6 41z" />
    <glyph glyph-name="germandbls" unicode="&#xdf;" horiz-adv-x="479" 
d="M153 2h-150l1 13q41 9 54 23.5t17 56.5q0 130 1 195v110v104l3 33q4 30 7.5 46t13 37.5t25.5 39.5q48 59 143 59q37 0 64 -9q42 -15 68 -49t26 -79q0 -11 -1 -20.5t-5 -19.5t-6 -16.5t-9 -16.5t-9.5 -14t-12.5 -15t-12 -13.5t-14.5 -15l-13.5 -13.5q-19 -21 -19 -39
t18 -48l85 -129l5 -9q5 -9 8.5 -17t8.5 -19.5t7.5 -24t2.5 -24.5q0 -30 -16 -61q-15 -30 -44 -47.5t-48 -21t-37 -3.5q-55 0 -88 28q-20 16 -20 39q0 16 12 27.5t29 11.5q26 0 39 -35q9 -32 16 -38q10 -12 34 -12q23 0 36.5 15t16 27t2.5 22q0 23 -16 60l-99 157
q-17 34 -17 54q0 16 6 31t13.5 23.5t20.5 23t20 23.5q34 46 34 103q0 88 -42 126q-23 20 -53 20q-26 0 -51 -19q-19 -14 -30.5 -38.5t-14.5 -41.5t-7 -53q-3 -71 -3 -144q0 -40 0.5 -118.5t0.5 -117.5v-167z" />
    <glyph glyph-name="agrave" unicode="&#xe0;" horiz-adv-x="437" 
d="M443 51l17 -8l-21 -24q-28 -27 -70 -27q-21 0 -37 6q-26 8 -57 47q-13 -11 -28 -22q-48 -33 -111 -33q-82 0 -106 52q-12 24 -12 52q0 78 101 108q10 3 41 11t52.5 16t37.5 20q26 19 26 60q0 12 -2 32q-7 49 -34 68q-23 15 -49 15q-39 -4 -56 -24q-6 -7 -15 -24.5
t-19.5 -28.5t-25.5 -11q-17 0 -27.5 11t-10.5 28q0 16 13 29q22 20 62.5 30.5t77.5 10.5q112 0 151 -61q10 -16 14 -56v-227q2 -78 44 -78q23 0 44 28zM276 135l3 118q-36 -27 -57 -38q-8 -4 -23 -11t-27 -13.5t-22 -13.5q-48 -37 -48 -92q0 -17 7 -33q6 -14 22 -27.5
t43 -13.5q41 0 70 33q25 30 32 91zM203 674l49 -173l-15 -4l-126 177h92z" />
    <glyph glyph-name="aacute" unicode="&#xe1;" horiz-adv-x="437" 
d="M443 51l17 -8l-21 -24q-28 -27 -70 -27q-21 0 -37 6q-26 8 -57 47q-13 -11 -28 -22q-48 -33 -111 -33q-82 0 -106 52q-12 24 -12 52q0 78 101 108q10 3 41 11t52.5 16t37.5 20q26 19 26 60q0 12 -2 32q-7 49 -34 68q-23 15 -49 15q-39 -4 -56 -24q-6 -7 -15 -24.5
t-19.5 -28.5t-25.5 -11q-17 0 -27.5 11t-10.5 28q0 16 13 29q22 20 62.5 30.5t77.5 10.5q112 0 151 -61q10 -16 14 -56v-227q2 -78 44 -78q23 0 44 28zM276 135l3 118q-36 -27 -57 -38q-8 -4 -23 -11t-27 -13.5t-22 -13.5q-48 -37 -48 -92q0 -17 7 -33q6 -14 22 -27.5
t43 -13.5q41 0 70 33q25 30 32 91zM221 674h86l-145 -175l-17 4z" />
    <glyph glyph-name="acircumflex" unicode="&#xe2;" horiz-adv-x="437" 
d="M443 51l17 -8l-21 -24q-28 -27 -70 -27q-21 0 -37 6q-26 8 -57 47q-13 -11 -28 -22q-48 -33 -111 -33q-82 0 -106 52q-12 24 -12 52q0 78 101 108q10 3 41 11t52.5 16t37.5 20q26 19 26 60q0 12 -2 32q-7 49 -34 68q-23 15 -49 15q-39 -4 -56 -24q-6 -7 -15 -24.5
t-19.5 -28.5t-25.5 -11q-17 0 -27.5 11t-10.5 28q0 16 13 29q22 20 62.5 30.5t77.5 10.5q112 0 151 -61q10 -16 14 -56v-227q2 -78 44 -78q23 0 44 28zM276 135l3 118q-36 -27 -57 -38q-8 -4 -23 -11t-27 -13.5t-22 -13.5q-48 -37 -48 -92q0 -17 7 -33q6 -14 22 -27.5
t43 -13.5q41 0 70 33q25 30 32 91zM159 675h84l89 -171l-14 -5l-117 123l-122 -123l-11 10z" />
    <glyph glyph-name="atilde" unicode="&#xe3;" horiz-adv-x="437" 
d="M443 51l17 -8l-21 -24q-28 -27 -70 -27q-21 0 -37 6q-26 8 -57 47q-13 -11 -28 -22q-48 -33 -111 -33q-82 0 -106 52q-12 24 -12 52q0 78 101 108q10 3 41 11t52.5 16t37.5 20q26 19 26 60q0 12 -2 32q-7 49 -34 68q-23 15 -49 15q-39 -4 -56 -24q-6 -7 -15 -24.5
t-19.5 -28.5t-25.5 -11q-17 0 -27.5 11t-10.5 28q0 16 13 29q22 20 62.5 30.5t77.5 10.5q112 0 151 -61q10 -16 14 -56v-227q2 -78 44 -78q23 0 44 28zM276 135l3 118q-36 -27 -57 -38q-8 -4 -23 -11t-27 -13.5t-22 -13.5q-48 -37 -48 -92q0 -17 7 -33q6 -14 22 -27.5
t43 -13.5q41 0 70 33q25 30 32 91zM314 662h14q0 -1 1 -11t1 -19.5t-1 -23t-4 -24.5q-12 -47 -53 -47q-14 1 -49 16q-28 14 -43 20q-30 15 -46 15q-9 0 -21 -4q-17 -8 -24 -45h-12q-2 65 9 90q14 31 49 31q17 0 35 -9l83 -36l5 -2q4 -2 10.5 -4t11.5 -2q16 0 22.5 12
t11.5 43z" />
    <glyph glyph-name="adieresis" unicode="&#xe4;" horiz-adv-x="437" 
d="M445 51l13 -7q-3 -3 -7.5 -9t-6.5 -9q-31 -34 -75 -34q-21 0 -36 6q-29 9 -59 48l-21 -18q-50 -38 -116 -38q-84 0 -108 54q-11 22 -11 48q0 68 74 100q9 4 73 22t87 37q23 20 23 61q0 73 -37 98q-22 14 -47 14q-37 -1 -56 -25q-7 -7 -16.5 -24.5t-19 -27.5t-23.5 -10
q-16 0 -27 10.5t-11 27.5q0 13 6 20q13 20 53 35t92 15q33 0 61 -6q73 -15 96 -65q8 -16 9 -48v-229q0 -7 1 -11q4 -63 43 -63q20 0 46 28zM59 613q3 11 15.5 22.5t32.5 12.5q21 -1 35.5 -15t14.5 -35q-1 -21 -15 -35.5t-35 -14.5t-35.5 14.5t-14.5 35.5q0 8 2 15zM278 144
v106q-36 -25 -86 -50q-61 -30 -80 -70q-10 -24 -10 -45q1 -41 25 -57.5t47 -16.5q39 0 69 33q28 31 35 100zM252 612q10 36 48 36q21 0 35.5 -14.5t15.5 -35.5q-1 -21 -15.5 -35.5t-35.5 -14.5q-8 0 -20 4q-18 8 -25.5 25t-2.5 35z" />
    <glyph glyph-name="aring" unicode="&#xe5;" horiz-adv-x="437" 
d="M448 49l10 -5q-10 -14 -16 -20q-27 -32 -74 -32q-19 0 -32 4q-30 9 -61 48q-20 -16 -35 -25q-47 -30 -104 -30q-50 0 -77 18q-20 12 -30 35q-11 25 -11 52q0 41 27 68q19 19 45.5 30t64 20t54.5 16q5 1 14.5 5t24 14.5t19.5 22.5q8 16 8 53q0 44 -21.5 72t-61.5 28
q-32 0 -52 -19q-9 -8 -17 -22q-1 -2 -5 -9.5t-5.5 -10t-5.5 -8t-6.5 -8t-7 -5.5t-9 -4t-10.5 -1q-17 0 -27.5 11t-10.5 28q0 11 8 22q15 18 54 33t88 15q10 0 18 -0.5t32.5 -4t43 -10.5t38.5 -22.5t29 -37.5q7 -13 8 -46v-228q3 -74 43 -74q22 1 50 27zM278 147v103
q-49 -31 -66 -40q-48 -24 -63 -35q-46 -35 -46 -90q0 -22 8 -37q17 -38 64 -38q44 0 73 39q22 29 30 98zM116 603q6 31 30.5 51.5t56.5 20.5q37 -1 62.5 -26t25.5 -62q0 -36 -27 -62.5t-63 -26.5q-15 0 -36 9q-27 13 -40.5 40t-8.5 56zM142 602q-4 -18 -1 -30q5 -21 23 -35
t39 -14q25 0 44 18t19 43q0 11 -4 23q-19 42 -59 42q-22 0 -39 -13.5t-22 -33.5z" />
    <glyph glyph-name="ae" unicode="&#xe6;" horiz-adv-x="688" 
d="M653 275h-299q0 -38 2 -57q8 -99 66 -152q44 -41 102 -41q68 0 103 46q5 7 10 16.5t8 18.5l3 9l21 -6q0 -1 -4.5 -9.5t-9.5 -17.5t-12.5 -20.5t-14.5 -18.5q-20 -20 -59 -37t-90 -17q-27 0 -56 7q-23 6 -44 16.5t-33.5 20.5t-36.5 31q-7 -6 -21 -16q-79 -58 -159 -58
q-68 0 -96 47q-16 26 -16 59q0 35 22 60q34 39 131 62q1 0 8 2t16 4.5t19 6.5t20.5 9.5t18.5 12.5q23 22 23 61q0 54 -22 83q-11 13 -27 21q-18 8 -37 8q-35 0 -57 -27q-5 -5 -10 -15q-1 -2 -6 -11.5t-6.5 -12t-6 -9t-8.5 -9t-10 -4.5t-13 -2q-15 1 -26 12t-11 26
q0 30 43 50q46 22 109 22q47 0 77 -10.5t77 -38.5q40 25 68.5 36t65.5 11q52 0 98 -25.5t65 -69.5q11 -24 15 -74zM277 149v104q-35 -26 -54 -37q-11 -6 -30.5 -15.5t-30.5 -15.5t-24 -18t-21 -27q-15 -25 -15 -53q0 -21 10 -41q19 -34 60 -34q48 0 77 42q22 31 28 95z
M356 295h221q-1 9 -5 32q-7 51 -46 79q-25 19 -56 19q-26 0 -53 -17q-51 -33 -61 -113z" />
    <glyph glyph-name="ccedilla" unicode="&#xe7;" horiz-adv-x="417" 
d="M406 104l13 -9q-15 -30 -28 -47q-49 -58 -146 -58q-45 0 -84 15q-19 8 -37.5 21t-40.5 36t-35.5 58.5t-13.5 78.5q0 81 42 143q69 102 198 102q72 0 110 -33q20 -19 20 -41q0 -17 -10 -27t-26 -10q-18 0 -28.5 10t-19.5 32t-12 27q-16 27 -49 27q-34 0 -67 -26
q-67 -56 -67 -182q0 -121 76 -177q35 -29 85 -29q76 0 115 80q1 1 3 4zM162 -215l-6 15q23 20 31.5 32.5t18.5 39.5q-40 2 -52 22q-8 11 -8 26q0 20 13.5 33.5t33.5 13.5q24 0 38.5 -18.5t14.5 -44.5t-14 -49.5t-28.5 -36.5t-41.5 -33z" />
    <glyph glyph-name="egrave" unicode="&#xe8;" horiz-adv-x="458" 
d="M425 276h-305q0 -38 2 -57q4 -98 66 -154q48 -39 103 -39q73 2 110 48q11 15 22 40l16 -5q-12 -30 -25 -48q-52 -70 -162 -70q-90 0 -149 51q-73 63 -73 170q0 92 49 154q31 36 77 57t95 21q77 0 127 -49q28 -28 36 -57q6 -16 11 -62zM121 295h228q-4 42 -13.5 66.5
t-36.5 44.5q-27 21 -59 21q-31 0 -55 -18q-52 -33 -64 -114zM240 674l49 -173l-15 -4l-126 177h92z" />
    <glyph glyph-name="eacute" unicode="&#xe9;" horiz-adv-x="458" 
d="M425 276h-305q0 -38 2 -57q4 -98 66 -154q48 -39 103 -39q73 2 110 48q11 15 22 40l16 -5q-12 -30 -25 -48q-52 -70 -162 -70q-90 0 -149 51q-73 63 -73 170q0 92 49 154q31 36 77 57t95 21q77 0 127 -49q28 -28 36 -57q6 -16 11 -62zM121 295h228q-4 42 -13.5 66.5
t-36.5 44.5q-27 21 -59 21q-31 0 -55 -18q-52 -33 -64 -114zM257 674h86l-144 -175l-17 4z" />
    <glyph glyph-name="ecircumflex" unicode="&#xea;" horiz-adv-x="458" 
d="M425 276h-305q0 -38 2 -57q4 -98 66 -154q48 -39 103 -39q73 2 110 48q11 15 22 40l16 -5q-12 -30 -25 -48q-52 -70 -162 -70q-90 0 -149 51q-73 63 -73 170q0 92 49 154q31 36 77 57t95 21q77 0 127 -49q28 -28 36 -57q6 -16 11 -62zM121 295h228q-4 42 -13.5 66.5
t-36.5 44.5q-27 21 -59 21q-31 0 -55 -18q-52 -33 -64 -114zM195 675h85l88 -171l-13 -5l-117 123l-123 -123l-11 10z" />
    <glyph glyph-name="edieresis" unicode="&#xeb;" horiz-adv-x="458" 
d="M425 276h-305q0 -38 2 -57q4 -98 66 -154q48 -39 103 -39q73 2 110 48q11 15 22 40l16 -5q-12 -30 -25 -48q-52 -70 -162 -70q-90 0 -149 51q-73 63 -73 170q0 92 49 154q31 36 77 57t95 21q77 0 127 -49q28 -28 36 -57q6 -16 11 -62zM121 295h228q-4 42 -13.5 66.5
t-36.5 44.5q-27 21 -59 21q-31 0 -55 -18q-52 -33 -64 -114zM94 612q10 36 49 36q21 -1 35.5 -15.5t14.5 -35.5t-15.5 -35t-36.5 -14q-11 0 -22 6q-16 8 -23 24.5t-2 33.5zM289 614q10 33 48 33q21 0 35 -15t14 -36q0 -20 -14 -34.5t-35 -14.5q-22 0 -36.5 14.5t-14.5 36.5
q0 6 3 16z" />
    <glyph glyph-name="igrave" unicode="&#xec;" horiz-adv-x="250" 
d="M166 442v-348q5 -33 8 -40q3 -6 6.5 -11.5t7.5 -9t9 -7t9 -5t9 -3t8 -2t7 -1.5t5 -1v-13h-217v14q7 0 27 6q17 6 26.5 18.5t12.5 24t5 34.5v235q0 18 -4 31q-7 24 -23 34t-45 15v10zM125 674l49 -173l-15 -4l-126 177h92z" />
    <glyph glyph-name="iacute" unicode="&#xed;" horiz-adv-x="250" 
d="M166 442v-348q5 -33 8 -40q3 -6 6.5 -11.5t7.5 -9t9 -7t9 -5t9 -3t8 -2t7 -1.5t5 -1v-13h-217v14q7 0 27 6q17 6 26.5 18.5t12.5 24t5 34.5v235q0 18 -4 31q-7 24 -23 34t-45 15v10zM143 674h86l-145 -175l-17 4z" />
    <glyph glyph-name="icircumflex" unicode="&#xee;" horiz-adv-x="250" 
d="M166 442v-348q5 -33 8 -40q3 -6 6.5 -11.5t7.5 -9t9 -7t9 -5t9 -3t8 -2t7 -1.5t5 -1v-13h-217v14q7 0 27 6q17 6 26.5 18.5t12.5 24t5 34.5v235q0 18 -4 31q-7 24 -23 34t-45 15v10zM81 675h84l89 -171l-14 -5l-117 123l-122 -123l-11 10z" />
    <glyph glyph-name="idieresis" unicode="&#xef;" horiz-adv-x="250" 
d="M166 442v-348q5 -33 8 -40q3 -6 6.5 -11.5t7.5 -9t9 -7t9 -5t9 -3t8 -2t7 -1.5t5 -1v-13h-217v14q7 0 27 6q17 6 26.5 18.5t12.5 24t5 34.5v235q0 18 -4 31q-7 24 -23 34t-45 15v10zM-20 612q10 36 48 36q22 -1 36.5 -15t14.5 -36q-1 -21 -16 -35t-36 -14q-11 0 -23 6
q-34 18 -24 58zM174 614q12 33 48 33q21 0 35 -15t14 -36q0 -20 -14 -34.5t-35 -14.5t-35.5 14.5t-14.5 36.5q0 9 2 16z" />
    <glyph glyph-name="ntilde" unicode="&#xf1;" horiz-adv-x="542" 
d="M18 411v12l148 20l5 -65q42 32 76 48.5t75 16.5q38 0 72 -19.5t49 -52.5q7 -14 13 -56v-213q4 -58 30 -74q11 -7 44 -15v-12h-224l1 14q32 4 48 16q20 16 24 67v204q-2 37 -11 62t-35 38q-18 11 -48 11q-48 0 -80 -30q-13 -12 -20.5 -29.5t-10 -30t-5.5 -38.5v-182
q0 -31 8 -49q6 -13 16.5 -21t20 -11t27.5 -7v-14h-223l1 14q21 4 29 7q18 6 27 19.5t11.5 26t3.5 36.5v224q-1 32 -6 43q-5 13 -16 21.5t-20.5 11t-29.5 7.5zM382 662h13q6 -50 -2 -78q-12 -47 -53 -47q-14 1 -49 16q-22 11 -43 20q-32 15 -47 15q-8 0 -20 -4
q-16 -7 -25 -45h-11q-5 63 8 90q15 31 49 31q9 0 36 -9l82 -36q1 0 5.5 -2t10.5 -4t11 -2q16 0 23 12.5t12 42.5z" />
    <glyph glyph-name="ograve" unicode="&#xf2;" horiz-adv-x="542" 
d="M29 232q3 38 22 77q32 64 91.5 99.5t130.5 35.5q90 0 155 -52q38 -31 60.5 -77.5t22.5 -95.5q0 -68 -42 -127q-29 -42 -72.5 -66.5t-71.5 -30t-55 -5.5q-91 0 -160 57q-40 34 -62.5 83.5t-18.5 101.5zM124 210q1 -98 45.5 -151t100.5 -53q42 0 78 30q30 26 47 70t19.5 68
t2.5 44q0 39 -9 72q-4 15 -10.5 30.5t-22 43.5t-43.5 45.5t-64 17.5q-61 0 -102 -60q-43 -63 -42 -157zM271 674l49 -173l-15 -4l-126 177h92z" />
    <glyph glyph-name="oacute" unicode="&#xf3;" horiz-adv-x="542" 
d="M29 232q3 38 22 77q32 64 91.5 99.5t130.5 35.5q90 0 155 -52q38 -31 60.5 -77.5t22.5 -95.5q0 -68 -42 -127q-29 -42 -72.5 -66.5t-71.5 -30t-55 -5.5q-91 0 -160 57q-40 34 -62.5 83.5t-18.5 101.5zM124 210q1 -98 45.5 -151t100.5 -53q42 0 78 30q30 26 47 70t19.5 68
t2.5 44q0 39 -9 72q-4 15 -10.5 30.5t-22 43.5t-43.5 45.5t-64 17.5q-61 0 -102 -60q-43 -63 -42 -157zM289 674h85l-144 -175l-17 4z" />
    <glyph glyph-name="ocircumflex" unicode="&#xf4;" horiz-adv-x="542" 
d="M29 232q3 38 22 77q32 64 91.5 99.5t130.5 35.5q90 0 155 -52q38 -31 60.5 -77.5t22.5 -95.5q0 -68 -42 -127q-29 -42 -72.5 -66.5t-71.5 -30t-55 -5.5q-91 0 -160 57q-40 34 -62.5 83.5t-18.5 101.5zM124 210q1 -98 45.5 -151t100.5 -53q42 0 78 30q30 26 47 70t19.5 68
t2.5 44q0 39 -9 72q-4 15 -10.5 30.5t-22 43.5t-43.5 45.5t-64 17.5q-61 0 -102 -60q-43 -63 -42 -157zM227 675h84l88 -171l-13 -5l-117 123l-123 -123l-11 10z" />
    <glyph glyph-name="otilde" unicode="&#xf5;" horiz-adv-x="542" 
d="M29 232q3 38 22 77q32 64 91.5 99.5t130.5 35.5q90 0 155 -52q38 -31 60.5 -77.5t22.5 -95.5q0 -68 -42 -127q-29 -42 -72.5 -66.5t-71.5 -30t-55 -5.5q-91 0 -160 57q-40 34 -62.5 83.5t-18.5 101.5zM124 210q1 -98 45.5 -151t100.5 -53q42 0 78 30q30 26 47 70t19.5 68
t2.5 44q0 39 -9 72q-4 15 -10.5 30.5t-22 43.5t-43.5 45.5t-64 17.5q-61 0 -102 -60q-43 -63 -42 -157zM382 662h13q6 -50 -2 -78q-12 -47 -53 -47q-14 1 -49 16q-22 11 -43 20q-32 15 -47 15q-8 0 -20 -4q-16 -7 -25 -45h-11q-5 63 8 90q15 31 49 31q9 0 36 -9l82 -36
q1 0 5.5 -2t10.5 -4t11 -2q16 0 23 12.5t12 42.5z" />
    <glyph glyph-name="odieresis" unicode="&#xf6;" horiz-adv-x="542" 
d="M29 218q1 76 53 138q26 31 75 59t118 28q87 0 153 -51q38 -30 60.5 -76t22.5 -95q0 -97 -73 -167q-70 -64 -169 -64q-85 0 -148 47q-42 32 -67 81t-25 100zM125 229q-7 -130 65 -192q35 -29 82 -31q47 0 84 36q61 61 61 169q0 103 -50 165q-40 51 -97 51q-42 0 -73 -25
q-65 -49 -72 -173zM129 619q11 32 46 31q22 0 36.5 -14t14.5 -36q0 -9 -4 -21q-14 -29 -49 -29q-20 0 -34 15t-14 36q0 7 4 18zM321 618q13 33 48 33q21 0 36 -15.5t15 -36.5q0 -20 -16 -34.5t-37 -14.5q-20 0 -34.5 15t-14.5 35q0 6 3 18z" />
    <glyph glyph-name="oslash" unicode="&#xf8;" horiz-adv-x="542" 
d="M441 385l63 58l18 -19l-65 -58q14 -18 20 -28q35 -48 35 -113q0 -47 -20 -94q-20 -44 -51.5 -75t-66.5 -44t-59.5 -17.5t-46.5 -4.5q-69 0 -122 31q-23 15 -43 33l-66 -57l-14 19l62 55q-29 42 -42.5 74.5t-13.5 73.5q0 48 23 94q31 60 93.5 95.5t133.5 35.5q32 0 60 -7
q41 -10 102 -52zM139 117l252 224q-44 88 -119 88q-39 0 -75 -24q-29 -23 -51 -72.5t-22 -119.5q0 -40 15 -96zM402 319l-255 -224q16 -24 25 -36q39 -52 99 -52q18 0 33 4q46 13 76 62q38 65 38 141q0 40 -16 105z" />
    <glyph glyph-name="ugrave" unicode="&#xf9;" horiz-adv-x="521" 
d="M154 432v-314q2 -25 5 -39t12 -29.5t26 -25.5q24 -14 53 -14t53 15q25 16 35 37.5t17 61.5q5 77 4 133q0 47 -1 71q-4 58 -26 76q-9 7 -46 16v13h149v-334q4 -56 24 -71q16 -11 48 -13v-12l-147 -18v69q-17 -20 -29 -30q-45 -34 -116 -34q-28 0 -48 5q-57 15 -75 54
q-4 8 -6.5 20t-3.5 21l-2 18t-1 10v213q0 24 -5 40q-2 6 -4.5 12t-5.5 10t-7 7.5t-7 6t-8 4.5t-8 3t-8 2t-7 1.5t-7 0.5l-4 1v13h146zM255 674l49 -173l-15 -4l-126 177h92z" />
    <glyph glyph-name="uacute" unicode="&#xfa;" horiz-adv-x="521" 
d="M154 432v-314q2 -25 5 -39t12 -29.5t26 -25.5q24 -14 53 -14t53 15q25 16 35 37.5t17 61.5q5 77 4 133q0 47 -1 71q-4 58 -26 76q-9 7 -46 16v13h149v-334q4 -56 24 -71q16 -11 48 -13v-12l-147 -18v69q-17 -20 -29 -30q-45 -34 -116 -34q-28 0 -48 5q-57 15 -75 54
q-4 8 -6.5 20t-3.5 21l-2 18t-1 10v213q0 24 -5 40q-2 6 -4.5 12t-5.5 10t-7 7.5t-7 6t-8 4.5t-8 3t-8 2t-7 1.5t-7 0.5l-4 1v13h146zM273 674h86l-145 -175l-17 4z" />
    <glyph glyph-name="ucircumflex" unicode="&#xfb;" horiz-adv-x="521" 
d="M154 432v-314q2 -25 5 -39t12 -29.5t26 -25.5q24 -14 53 -14t53 15q25 16 35 37.5t17 61.5q5 77 4 133q0 47 -1 71q-4 58 -26 76q-9 7 -46 16v13h149v-334q4 -56 24 -71q16 -11 48 -13v-12l-147 -18v69q-17 -20 -29 -30q-45 -34 -116 -34q-28 0 -48 5q-57 15 -75 54
q-4 8 -6.5 20t-3.5 21l-2 18t-1 10v213q0 24 -5 40q-2 6 -4.5 12t-5.5 10t-7 7.5t-7 6t-8 4.5t-8 3t-8 2t-7 1.5t-7 0.5l-4 1v13h146zM211 675h84l89 -171l-14 -5l-117 123l-122 -123l-11 10z" />
    <glyph glyph-name="udieresis" unicode="&#xfc;" horiz-adv-x="521" 
d="M154 432v-314q2 -24 4.5 -38t11.5 -29.5t26 -25.5q24 -14 54 -14q28 0 52 14q26 15 36 37t17 63q4 68 4 104q0 66 -1 99q-4 58 -27 76q-12 9 -45 16v13h149v-340q0 -20 4 -34q5 -17 15 -26.5t20.5 -12.5t31.5 -5v-12l-147 -19v72q-14 -18 -21 -24q-43 -42 -123 -42
q-38 0 -73 14t-50 43q-10 20 -14 68v216q-2 33 -9 49q-6 13 -16.5 21t-19.5 11.5t-27 7.5v12h148zM102 613q4 16 19.5 26t32.5 10q20 0 33.5 -14.5t13.5 -34.5q0 -22 -14.5 -37t-36.5 -15q-10 0 -19 4q-16 8 -25 26t-4 35zM296 614q4 15 19 25t32 10q19 0 33 -15t14 -36
t-15.5 -35t-37.5 -14q-24 0 -38.5 20.5t-6.5 44.5z" />
    <glyph glyph-name="ydieresis" unicode="&#xff;" horiz-adv-x="458" 
d="M198 432l-1 -14q-17 -3 -21 -5q-27 -10 -27 -39q0 -14 7 -39q2 -5 11.5 -32t15.5 -41t17 -41t17 -41q7 -15 19 -46.5t19 -47.5q46 106 61 143q13 32 37 96q9 24 9 38q0 33 -23 47q-14 7 -28 7v14h147l-1 -14q-24 -3 -37 -14t-33 -47l-196 -458q-20 -42 -43 -66t-60 -24
q-22 0 -40.5 10t-18.5 30q1 13 11 21.5t24 8.5q10 0 30 -7.5t30 -7.5q23 0 38 19q11 12 29 57q13 35 13 52q0 11 -10 41l-138 338q-12 26 -22 34t-35 14v14h199zM84 612q10 36 49 36q21 -1 35.5 -15.5t14.5 -35.5t-15.5 -35t-36.5 -14q-11 0 -23 6q-34 18 -24 58zM278 614
q12 33 49 33q21 0 34.5 -15t13.5 -36q0 -20 -14 -34.5t-35 -14.5t-35.5 14.5t-14.5 36.5q0 9 2 16z" />
    <glyph glyph-name="dotlessi" unicode="&#x131;" horiz-adv-x="250" 
d="M166 442v-348q5 -33 8 -40q3 -6 6.5 -11.5t7.5 -9t9 -7t9 -5t9 -3t8 -2t7 -1.5t5 -1v-13h-217v14q7 0 27 6q17 6 26.5 18.5t12.5 24t5 34.5v235q0 18 -4 31q-7 24 -23 34t-45 15v10z" />
    <glyph glyph-name="OE" unicode="&#x152;" horiz-adv-x="1125" 
d="M1015 706l8 -166h-13q-3 9 -7 27q-17 57 -52 84q-40 31 -124 39h-142v-308q66 -1 95 5.5t48 30.5q19 26 27 86h14v-270h-15q0 3 -0.5 10t-1.5 10q-7 53 -37 82q-24 22 -54 27t-76 3v-209q4 -52 26 -82q10 -15 25 -26q39 -29 112 -29q22 0 55 4q68 9 106 50q36 38 64 140
l13 -4v-206q-78 1 -233 1q-94 -2 -141 -2h-137q-17 -1 -49.5 -4t-48.5 -4q-14 -1 -80 -1q-21 2 -55 8q-97 17 -167 74q-132 106 -132 269q0 130 82 227q40 47 98 83.5t117 50.5q35 8 114 8q74 -6 111 -8q58 -2 88 -2q35 0 104 1t104 1h154zM576 67v576q-28 21 -37 27
q-47 30 -112 30q-108 0 -171 -75q-14 -17 -41 -64q-23 -57 -36 -109q-10 -70 -10 -106q0 -107 35.5 -179t84.5 -110q60 -46 133 -46q76 0 154 56z" />
    <glyph glyph-name="oe" unicode="&#x153;" horiz-adv-x="833" 
d="M801 278h-299q0 -35 1 -53q8 -101 64 -154q45 -42 108 -42q66 0 103 47q17 23 22 43l16 -8q-12 -32 -25 -49q-54 -71 -167 -71q-30 0 -59 8q-24 6 -45 18.5t-33 23.5t-35 34q-52 -45 -89.5 -64.5t-92.5 -19.5q-87 0 -151 50q-41 32 -65 79.5t-24 98.5q0 47 21 89
q29 62 90 99t132 37q79 0 139 -44q27 -20 43 -41q4 3 10.5 10t9.5 11q10 10 15 14q57 51 135 51q54 0 100 -27.5t64 -74.5q12 -30 12 -65zM125 215q0 -117 65 -174q36 -33 80 -33q28 0 50 13q36 20 63 68.5t27 125.5q0 123 -64 181q-34 31 -81 31q-54 0 -94 -50
q-48 -59 -46 -162zM724 295l-3 33q-11 56 -49 82q-27 17 -52 17q-23 0 -53 -17q-55 -36 -63 -115h220z" />
    <glyph glyph-name="Ydieresis" unicode="&#x178;" horiz-adv-x="708" 
d="M326 705l-1 -16q-24 -2 -38.5 -5t-28.5 -15.5t-14 -34.5q0 -14 14 -44l146 -234l139 212q0 1 3 6t5.5 10t5.5 12.5t5 16t2 16.5q0 39 -42 54q-12 4 -41 5v17h225l-1 -16q-38 -7 -53 -17t-38 -42l-172 -261q-15 -27 -19 -41t-6 -46v-149q0 -1 0.5 -9t1.5 -16t3 -18.5
t6.5 -21t11.5 -18.5q12 -16 35 -23.5t37.5 -8.5t43.5 -1v-16h-385l1 17q13 -1 26 0q66 1 92 46q14 25 16 74v127q-3 42 -22 79q-28 46 -84 136q-10 16 -98 146q-27 35 -43.5 45.5t-56.5 17.5v16h324zM210 841q4 22 22 36.5t41 14.5q27 0 45.5 -18.5t18.5 -45.5q0 -14 -7 -27
q-17 -36 -58 -36q-29 0 -48 24t-14 52zM434 840q5 23 22 37t42 14t44 -20t19 -46q-1 -26 -20 -43.5t-45 -17.5q-31 0 -49.5 23t-12.5 53z" />
    <glyph glyph-name="circumflex" unicode="&#x2c6;" 
d="M8 675h84l89 -171l-14 -5l-117 123l-122 -123l-11 10z" />
    <glyph glyph-name="caron" unicode="&#x2c7;" 
d="M51 553l122 125l11 -10l-91 -167h-84l-86 169l11 9z" />
    <glyph glyph-name="tilde" unicode="&#x2dc;" 
d="M163 662h14q0 -1 1 -11t1 -19.5t-1 -23t-4 -24.5q-12 -47 -53 -47q-14 1 -49 16q-28 14 -43 20q-30 15 -46 15q-9 0 -21 -4q-17 -8 -24 -45h-12q-2 65 9 90q14 31 49 31q17 0 35 -9l83 -36l4 -2q5 -2 11.5 -4t11.5 -2q16 0 22.5 12t11.5 43z" />
    <glyph glyph-name="endash" unicode="&#x2013;" horiz-adv-x="521" 
d="M36 270h447v-75h-447v75z" />
    <glyph glyph-name="emdash" unicode="&#x2014;" horiz-adv-x="667" 
d="M667 262h-667v59h667v-59z" />
    <glyph glyph-name="quoteleft" unicode="&#x2018;" horiz-adv-x="229" 
d="M175 716l7 -15q-41 -21 -60 -45q-26 -31 -37 -101q16 8 41 8q23 0 40.5 -18.5t18.5 -43.5q-1 -27 -20 -45t-46 -18q-36 0 -57 30.5t-21 69.5q0 40 21 82.5t53 65.5q17 12 60 30z" />
    <glyph glyph-name="quoteright" unicode="&#x2019;" horiz-adv-x="229" 
d="M56 432l-6 13q44 25 64 55q27 40 30 98q-22 -10 -36 -10q-26 0 -44 18t-18 43q0 27 17 45.5t44 18.5q37 0 57.5 -33t20.5 -74t-20 -80t-53 -64q-16 -11 -56 -30z" />
    <glyph glyph-name="quotesinglbase" unicode="&#x201a;" horiz-adv-x="229" 
d="M52 -157l-8 14q25 12 37.5 21t25.5 27q30 38 35 97q-23 -9 -36 -9q-26 0 -44.5 18.5t-18.5 43.5q0 7 4 23q16 41 60 41q37 -1 58.5 -31.5t21.5 -70.5q0 -42 -22.5 -83.5t-56.5 -64.5q-16 -11 -56 -26z" />
    <glyph glyph-name="quotedblleft" unicode="&#x201c;" horiz-adv-x="417" 
d="M175 716l7 -17q-38 -18 -57 -39q-28 -32 -39 -105q20 9 35 9q25 0 44 -19.5t19 -44.5q0 -14 -6 -28q-19 -35 -57 -35t-58.5 30.5t-20.5 71.5q0 40 20.5 81.5t52.5 65.5q19 14 60 30zM364 715l7 -17q-42 -18 -65 -48q-28 -37 -32 -95q1 0 7 2.5t13.5 4.5t15.5 2
q25 -1 43.5 -20t18.5 -44q0 -13 -5 -24q-17 -40 -57 -40q-39 1 -60 32t-21 72q0 40 21.5 82t55.5 66q15 11 58 27z" />
    <glyph glyph-name="quotedblright" unicode="&#x201d;" horiz-adv-x="417" 
d="M52 436l-7 14q47 25 70 59q7 11 12 21t7.5 21t3.5 16t2 17l1 12l-7 -2q-6 -3 -14 -5t-15 -2q-25 1 -44 19.5t-19 43.5q0 14 6 26q15 39 58 39q23 0 41 -13q38 -28 38 -87q0 -95 -70 -148q-20 -15 -63 -31zM240 435l-7 15q23 11 33 19q42 30 58 87q5 21 5 40l-7 -2
q-7 -3 -14.5 -5t-14.5 -2q-25 1 -44 19.5t-19 43.5q0 14 4 22q16 42 61 42q37 0 58 -31.5t21 -72.5q0 -40 -20.5 -80t-52.5 -64q-18 -14 -61 -31z" />
    <glyph glyph-name="quotedblbase" unicode="&#x201e;" horiz-adv-x="417" 
d="M50 -155l-7 15q21 9 34 17q44 31 58 87l5 38q-28 -7 -39 -7q-13 0 -24 6q-11 5 -23 20t-12 37q0 12 6 26q18 35 58 35q37 0 58 -30t21 -70q0 -30 -12 -62q-24 -61 -72 -91q-8 -6 -19.5 -10.5t-21.5 -7.5zM237 -157l-7 16q42 18 64 48q6 8 10.5 15.5t7.5 13t5.5 13t4 11.5
t2.5 11.5t1.5 9.5t1.5 10t1 10q-12 -6 -39 -6q-13 0 -22 4q-16 7 -27 23.5t-11 34.5q0 13 6 25q18 38 58 37q23 0 36 -9q21 -13 32.5 -39t11.5 -54q0 -42 -22.5 -82.5t-56.5 -64.5q-14 -10 -57 -27z" />
    <glyph glyph-name="dagger" unicode="&#x2020;" horiz-adv-x="521" 
d="M330 318l-13 -39q-8 -32 -19 -82q-20 -108 -21 -357h-41v8q0 9 0.5 21.5t0.5 30.5v38.5t-0.5 43t-1 46.5t-1.5 46.5t-2.5 44.5t-3.5 39q-6 42 -15 80v2l-25 79q43 69 53 102q5 13 9 41q-45 -7 -78 -21q-5 -2 -17.5 -8t-19 -8.5t-17 -6t-20 -5t-19.5 -1.5q-36 0 -51 18
t-15 39q0 20 16 39t52 19q17 0 33 -4t39.5 -13t30.5 -11q46 -14 69 -20q-14 50 -25 79q-26 61 -26 86q0 35 19.5 51t39.5 16t38 -15t18 -50q0 -16 -4 -30t-13.5 -36t-11.5 -28q-10 -29 -19 -70q60 8 98 24q48 21 75 21q35 0 51 -18.5t16 -38.5q0 -19 -16.5 -38.5
t-51.5 -19.5q-16 0 -31 4t-38.5 14t-29.5 12q-24 9 -74 21q10 -53 20.5 -76.5t41.5 -68.5z" />
    <glyph glyph-name="bullet" unicode="&#x2022;" horiz-adv-x="333" 
d="M286 353q0 -27 -11 -52q-30 -67 -107 -67q-27 0 -51 11q-32 14 -51 43t-19 64q1 51 36.5 85.5t85.5 34.5q49 0 83 -34.5t34 -84.5z" />
    <glyph glyph-name="ellipsis" unicode="&#x2026;" horiz-adv-x="1000" 
d="M880 41q0 -19 -13.5 -33t-32.5 -14q-20 0 -33.5 13.5t-13.5 33.5t14 33t33 13q20 0 33 -13t13 -33zM547 41q0 -19 -13.5 -33.5t-33.5 -13.5q-20 0 -33 13.5t-13 33.5q0 19 13.5 32.5t33.5 13.5q19 0 32 -13t14 -33zM213 41q0 -19 -13 -33.5t-33 -13.5q-19 0 -33 14
t-14 33q0 20 14 33t33 13q20 0 33 -13t13 -33z" />
    <glyph glyph-name="fraction" unicode="&#x2044;" horiz-adv-x="125" 
d="M239 719l28 -14l-388 -718l-24 13z" />
    <glyph glyph-name="trademark" unicode="&#x2122;" horiz-adv-x="771" 
d="M418 611v-157q0 -35 10 -42q7 -6 22 -6l8 -1v-31q-58 2 -117 0v31l8 1q18 3 23 12t5 37v208l-3 4q-12 7 -28 8v31q20 -1 60 -1q6 0 17 0.5t16 0.5l100 -247l105 247q0 -1 46 0h47v-31h-8q-17 -2 -24 -8.5t-7 -29.5v-183q0 -37 6 -42q7 -6 20 -6l7 -1v-31q-50 2 -76 2
q-9 0 -25.5 -1t-24.5 -1v31l7 1q12 0 18 5t7 9t1 13v176l-98 -235h-23zM311 620l-29 1l-9 24q-6 13 -15.5 20t-14.5 7.5t-16 0.5h-29v-221q0 -3 0.5 -8.5t0.5 -7.5q0 -16 5 -22t21 -7l19 -2l-1 -31q-68 2 -103 1q-8 0 -25 -0.5t-26 -0.5v31l18 1q14 3 18 5q10 5 10 41v221
h-29q-17 0 -24 -3q-17 -7 -30 -50l-30 1q2 27 4 85q18 0 52.5 -0.5t51.5 -0.5q59 -1 177 1q2 -56 4 -86z" />
    <glyph glyph-name="minus" unicode="&#x2212;" horiz-adv-x="667" 
d="M667 262h-667v59h667v-59z" />
    <glyph glyph-name="Acute" unicode="&#xf6c9;" 
d="M76 892h134l-230 -136l-16 15z" />
    <glyph glyph-name="Caron" unicode="&#xf6ca;" 
d="M49 801l140 90l18 -9l-106 -127h-101l-96 127l19 9z" />
    <glyph glyph-name="Dieresis" unicode="&#xf6cb;" 
d="M-123 841q4 22 22 36.5t41 14.5q27 0 45 -18.5t18 -45.5q0 -14 -6 -27q-17 -36 -59 -36q-28 0 -47 24t-14 52zM101 840q4 22 21.5 36.5t41.5 14.5q26 0 44.5 -20t18.5 -46t-19 -43.5t-45 -17.5q-31 0 -49.5 23t-12.5 53z" />
    <glyph glyph-name="Grave" unicode="&#xf6ce;" 
d="M38 891l116 -125l-19 -12l-229 137h132z" />
    <glyph glyph-name="onefitted" unicode="&#xf6dc;" horiz-adv-x="375" 
d="M60 623v16q28 0 47 3q25 4 52 17t40 21.5t46 31.5v-577q2 -53 18 -77q9 -14 25 -22.5t27.5 -11.5t35.5 -8v-15h-293v17q26 4 39.5 8t29 14.5t23.5 28.5q5 10 13 57l-1 496q-38 -4 -51 -4q-16 0 -51 5z" />
    <glyph glyph-name="fi" unicode="&#xfb01;" horiz-adv-x="521" 
d="M94 435v146q4 51 18 72q23 33 75 53t99 20q62 0 86 -28q8 -11 8 -25q0 -20 -12.5 -28.5t-24.5 -8.5q-23 0 -40 26q-18 28 -20 30q-13 13 -38 13q-21 0 -39 -12q-20 -13 -26 -30.5t-10 -48.5v-178h101v-29h-100v-301q2 -26 6 -40q13 -43 66 -46v-15h-221v14q32 4 45 15
q11 8 17 23t7 22t3 30v298h-77v28h77zM437 443v-343q0 -29 7 -47q5 -12 16 -20t19.5 -11t26.5 -8v-12h-217v15q31 4 44 13q21 15 27 66v239q0 21 -8 40q-13 33 -64 37v11zM350 686q13 32 45 32q21 -1 35 -16t14 -36q0 -19 -16 -32.5t-36 -13.5q-18 1 -31.5 14.5t-13.5 31.5
q0 11 3 20z" />
    <glyph glyph-name="fl" unicode="&#xfb02;" horiz-adv-x="521" 
d="M94 435v146q4 51 18 72q23 33 75 53t99 20q62 0 86 -28q8 -11 8 -25q0 -20 -12.5 -28.5t-24.5 -8.5q-23 0 -40 26q-18 28 -20 30q-13 13 -38 13q-21 0 -39 -12q-20 -13 -26 -30.5t-10 -48.5v-178h101v-29h-100v-301q2 -26 6 -40q13 -43 66 -46v-15h-221v14q32 4 45 15
q11 8 17 23t7 22t3 30v298h-77v28h77zM289 691v14l147 18v-619q0 -2 0.5 -9t1.5 -15.5t3 -15.5q11 -41 66 -48v-14h-220v16q28 1 44 12q13 9 18 22t10 43v516q-2 38 -14 55q-14 20 -56 25z" />
    <glyph glyph-name="Circumflex" 
d="M-3 891h105l94 -127l-17 -8l-127 90l-140 -91l-18 10z" />
    <glyph glyph-name="Tilde" 
d="M167 891h13v-3q1 -4 1 -8.5v-11.5v-14t-1 -15.5t-2 -16t-4 -15t-6 -13.5q-15 -27 -47 -27q-11 0 -39 11l-83 34q-14 7 -31 7q-18 0 -26 -13.5t-13 -37.5l-12 1q-7 47 6 79q17 43 56 43q17 0 100 -37l5 -2q4 -2 9.5 -4t12 -4t13.5 -3.5t12 -1.5q9 0 16 5q16 11 20 47z" />
    </font>
</defs>
</svg>
